<svg width="2826" height="620" viewBox="0 0 2826 620" fill="none" xmlns="http://www.w3.org/2000/svg">
<circle cx="346.381" cy="309.974" r="304.477" fill="url(#paint0_linear_93_89)" stroke="#FEBE10" stroke-width="11.0052"/>
<circle cx="347.759" cy="309.516" r="223.885" fill="white" stroke="url(#paint1_linear_93_89)" stroke-width="10.3133"/>
<rect x="6.91759" y="247.776" width="681.23" height="139.428" rx="36.0266" fill="url(#paint2_linear_93_89)" stroke="url(#paint3_linear_93_89)" stroke-width="12.1648"/>
<path d="M90.1573 272.916C96.4522 272.916 101.953 274.192 106.66 276.744C111.424 279.239 115.082 282.755 117.634 287.292C120.186 291.829 121.462 297.018 121.462 302.859C121.462 308.643 120.157 313.804 117.549 318.341C114.997 322.878 111.339 326.451 106.575 329.059C101.868 331.611 96.3955 332.887 90.1573 332.887H66.4239V272.916H90.1573ZM88.8813 318.171C93.7584 318.171 97.5864 316.838 100.365 314.173C103.144 311.507 104.533 307.736 104.533 302.859C104.533 297.925 103.144 294.125 100.365 291.46C97.5864 288.738 93.7584 287.377 88.8813 287.377H83.0968V318.171H88.8813ZM166.917 323.105H145.65L142.418 332.887H124.894L146.756 272.916H165.981L187.758 332.887H170.149L166.917 323.105ZM162.749 310.345L156.284 290.95L149.904 310.345H162.749ZM223.561 332.887L211.652 310.77H209.865V332.887H193.192V272.916H219.478C224.298 272.916 228.381 273.766 231.727 275.468C235.073 277.112 237.597 279.409 239.298 282.358C240.999 285.25 241.85 288.511 241.85 292.141C241.85 296.224 240.716 299.825 238.447 302.944C236.236 306.006 232.975 308.19 228.665 309.494L242.19 332.887H223.561ZM209.865 299.371H218.117C220.385 299.371 222.086 298.832 223.221 297.755C224.355 296.677 224.922 295.118 224.922 293.076C224.922 291.148 224.326 289.645 223.136 288.568C222.001 287.434 220.328 286.866 218.117 286.866H209.865V299.371ZM265.765 272.916V307.708C265.765 310.94 266.502 313.435 267.977 315.193C269.508 316.951 271.805 317.831 274.867 317.831C277.929 317.831 280.226 316.951 281.757 315.193C283.345 313.379 284.139 310.883 284.139 307.708V272.916H300.812V307.708C300.812 313.209 299.65 317.916 297.324 321.829C294.999 325.685 291.824 328.606 287.797 330.59C283.827 332.519 279.404 333.483 274.527 333.483C269.65 333.483 265.283 332.519 261.427 330.59C257.627 328.606 254.621 325.685 252.41 321.829C250.255 317.972 249.177 313.265 249.177 307.708V272.916H265.765ZM326.665 320.127H345.294V332.887H309.992V272.916H326.665V320.127ZM384.733 272.916V332.887H368.06V272.916H384.733ZM447.904 272.916V332.887H431.231V308.814H410.9V332.887H394.227V272.916H410.9V295.458H431.231V272.916H447.904ZM480.073 333.483C473.098 333.483 467.37 331.838 462.89 328.549C458.409 325.203 455.999 320.439 455.659 314.258H473.438C473.608 316.356 474.232 317.887 475.309 318.851C476.387 319.815 477.776 320.297 479.478 320.297C481.009 320.297 482.256 319.929 483.22 319.192C484.241 318.398 484.752 317.32 484.752 315.959C484.752 314.201 483.929 312.84 482.285 311.876C480.64 310.912 477.975 309.834 474.288 308.643C470.375 307.339 467.2 306.091 464.761 304.9C462.379 303.653 460.281 301.866 458.466 299.541C456.708 297.159 455.829 294.069 455.829 290.269C455.829 286.413 456.793 283.124 458.721 280.401C460.65 277.623 463.315 275.524 466.718 274.107C470.12 272.689 473.977 271.98 478.287 271.98C485.262 271.98 490.82 273.624 494.96 276.914C499.156 280.146 501.396 284.711 501.68 290.609H483.561C483.504 288.795 482.937 287.434 481.859 286.526C480.839 285.619 479.506 285.165 477.861 285.165C476.614 285.165 475.593 285.534 474.799 286.271C474.005 287.008 473.608 288.057 473.608 289.418C473.608 290.553 474.033 291.545 474.884 292.396C475.791 293.19 476.897 293.899 478.202 294.522C479.506 295.09 481.434 295.827 483.986 296.734C487.786 298.038 490.905 299.343 493.343 300.647C495.839 301.895 497.965 303.681 499.723 306.006C501.538 308.275 502.445 311.167 502.445 314.683C502.445 318.256 501.538 321.46 499.723 324.296C497.965 327.131 495.385 329.371 491.982 331.016C488.636 332.66 484.667 333.483 480.073 333.483ZM548.136 323.105H526.869L523.637 332.887H506.113L527.975 272.916H547.2L568.977 332.887H551.368L548.136 323.105ZM543.968 310.345L537.503 290.95L531.123 310.345H543.968ZM629.959 332.887H613.286L591.084 299.371V332.887H574.411V272.916H591.084L613.286 306.857V272.916H629.959V332.887Z" fill="white"/>
<path d="M81.2049 352.597H76.507C76.4443 352.005 76.3159 351.471 76.1218 350.994C75.9276 350.517 75.6708 350.109 75.3513 349.771C75.0318 349.433 74.6529 349.175 74.2144 348.998C73.7822 348.813 73.303 348.721 72.7768 348.721C71.8435 348.721 71.0386 349.002 70.3621 349.563C69.6918 350.125 69.1751 350.936 68.8117 351.997C68.4547 353.059 68.2762 354.343 68.2762 355.85C68.2762 357.419 68.4578 358.734 68.8211 359.796C69.1907 360.849 69.7075 361.645 70.3715 362.184C71.0417 362.714 71.8341 362.98 72.7486 362.98C73.2623 362.98 73.7289 362.899 74.1486 362.738C74.5746 362.576 74.9473 362.341 75.2667 362.034C75.5925 361.718 75.8587 361.338 76.0654 360.892C76.2784 360.438 76.4256 359.927 76.507 359.357L81.2049 359.392C81.1235 360.438 80.8761 361.469 80.4627 362.484C80.0555 363.499 79.4949 364.426 78.7808 365.264C78.0667 366.095 77.196 366.756 76.1687 367.248C75.1477 367.74 73.9764 367.986 72.6547 367.986C70.9133 367.986 69.3536 367.517 67.9755 366.579C66.6037 365.633 65.52 364.256 64.7245 362.449C63.929 360.642 63.5312 358.442 63.5312 355.85C63.5312 353.251 63.9353 351.048 64.7433 349.24C65.5514 347.433 66.6444 346.06 68.0225 345.122C69.4006 344.184 70.9446 343.714 72.6547 343.714C73.8198 343.714 74.8972 343.914 75.8869 344.314C76.8766 344.707 77.7472 345.283 78.4989 346.045C79.2506 346.798 79.8613 347.725 80.3311 348.825C80.8009 349.925 81.0922 351.182 81.2049 352.597Z" fill="white"/>
<path d="M83.8663 367.663V344.037H97.2837V348.675H88.5173V353.52H96.5978V358.169H88.5173V363.026H97.2837V367.663H83.8663Z" fill="white"/>
<path d="M116.573 344.037V367.663H112.627L104.97 354.028H104.847V367.663H100.196V344.037H104.199L111.772 357.65H111.932V344.037H116.573Z" fill="white"/>
<path d="M118.868 348.675V344.037H135.133V348.675H129.298V367.663H124.713V348.675H118.868Z" fill="white"/>
<path d="M137.404 367.663V344.037H150.821V348.675H142.055V353.52H150.136V358.169H142.055V363.026H150.821V367.663H137.404Z" fill="white"/>
<path d="M153.734 367.663V344.037H161.683C163.124 344.037 164.367 344.357 165.413 344.995C166.466 345.626 167.277 346.533 167.847 347.718C168.417 348.894 168.702 350.29 168.702 351.905C168.702 353.543 168.411 354.935 167.828 356.081C167.246 357.219 166.419 358.088 165.348 358.688C164.276 359.281 163.008 359.577 161.542 359.577H156.515V355.078H160.678C161.379 355.078 161.965 354.966 162.435 354.743C162.911 354.512 163.271 354.166 163.515 353.705C163.76 353.236 163.882 352.636 163.882 351.905C163.882 351.174 163.76 350.571 163.515 350.094C163.271 349.609 162.911 349.248 162.435 349.01C161.959 348.763 161.373 348.64 160.678 348.64H158.385V367.663H153.734ZM164.568 356.866L169.36 367.663H164.286L159.588 356.866H164.568Z" fill="white"/>
<path d="M176.937 367.663V344.037H190.073V348.675H181.588V353.52H189.237V358.169H181.588V367.663H176.937Z" fill="white"/>
<path d="M210.577 355.85C210.577 358.45 210.17 360.653 209.356 362.461C208.541 364.268 207.439 365.641 206.048 366.579C204.664 367.517 203.11 367.986 201.388 367.986C199.659 367.986 198.102 367.513 196.718 366.568C195.334 365.622 194.234 364.249 193.42 362.449C192.612 360.642 192.208 358.442 192.208 355.85C192.208 353.251 192.612 351.048 193.42 349.24C194.234 347.433 195.334 346.06 196.718 345.122C198.102 344.184 199.659 343.714 201.388 343.714C203.11 343.714 204.664 344.184 206.048 345.122C207.439 346.06 208.541 347.433 209.356 349.24C210.17 351.048 210.577 353.251 210.577 355.85ZM205.823 355.85C205.823 354.312 205.644 353.013 205.287 351.951C204.936 350.89 204.429 350.086 203.765 349.54C203.107 348.994 202.315 348.721 201.388 348.721C200.467 348.721 199.675 348.994 199.011 349.54C198.347 350.086 197.836 350.89 197.479 351.951C197.128 353.013 196.953 354.312 196.953 355.85C196.953 357.389 197.128 358.688 197.479 359.75C197.836 360.811 198.347 361.615 199.011 362.161C199.675 362.707 200.467 362.98 201.388 362.98C202.315 362.98 203.107 362.707 203.765 362.161C204.429 361.615 204.936 360.811 205.287 359.75C205.644 358.688 205.823 357.389 205.823 355.85Z" fill="white"/>
<path d="M213.292 367.663V344.037H221.241C222.682 344.037 223.925 344.357 224.972 344.995C226.024 345.626 226.835 346.533 227.405 347.718C227.975 348.894 228.26 350.29 228.26 351.905C228.26 353.543 227.969 354.935 227.386 356.081C226.804 357.219 225.977 358.088 224.906 358.688C223.835 359.281 222.566 359.577 221.1 359.577H216.074V355.078H220.236C220.938 355.078 221.523 354.966 221.993 354.743C222.469 354.512 222.829 354.166 223.074 353.705C223.318 353.236 223.44 352.636 223.44 351.905C223.44 351.174 223.318 350.571 223.074 350.094C222.829 349.609 222.469 349.248 221.993 349.01C221.517 348.763 220.931 348.64 220.236 348.64H217.943V367.663H213.292ZM224.126 356.866L228.918 367.663H223.844L219.146 356.866H224.126Z" fill="white"/>
<path d="M243.608 367.663H236.496V344.037H243.599C245.56 344.037 247.248 344.51 248.663 345.456C250.085 346.395 251.181 347.748 251.952 349.517C252.722 351.278 253.108 353.386 253.108 355.839C253.108 358.3 252.722 360.415 251.952 362.184C251.188 363.953 250.095 365.31 248.673 366.256C247.251 367.194 245.563 367.663 243.608 367.663ZM241.147 362.795H243.43C244.507 362.795 245.419 362.572 246.164 362.126C246.916 361.672 247.483 360.938 247.865 359.923C248.253 358.9 248.447 357.539 248.447 355.839C248.447 354.139 248.253 352.786 247.865 351.778C247.476 350.763 246.903 350.032 246.145 349.586C245.394 349.133 244.466 348.906 243.364 348.906H241.147V362.795Z" fill="white"/>
<path d="M260.474 344.037V367.663H255.823V344.037H260.474Z" fill="white"/>
<path d="M276.022 351.755C275.915 351.271 275.759 350.844 275.552 350.475C275.345 350.098 275.092 349.779 274.791 349.517C274.49 349.256 274.146 349.06 273.757 348.929C273.369 348.79 272.943 348.721 272.48 348.721C271.546 348.721 270.738 348.998 270.055 349.552C269.379 350.105 268.856 350.913 268.486 351.974C268.117 353.028 267.932 354.308 267.932 355.816C267.932 357.331 268.11 358.623 268.468 359.692C268.825 360.761 269.341 361.576 270.018 362.138C270.694 362.699 271.515 362.98 272.48 362.98C273.331 362.98 274.052 362.811 274.641 362.472C275.236 362.126 275.687 361.638 275.994 361.007C276.301 360.376 276.454 359.634 276.454 358.781L277.318 358.908H272.639V354.743H280.936V357.869C280.936 359.984 280.569 361.795 279.837 363.303C279.11 364.81 278.108 365.968 276.83 366.775C275.558 367.583 274.096 367.986 272.442 367.986C270.607 367.986 268.994 367.498 267.603 366.521C266.212 365.545 265.129 364.153 264.352 362.345C263.575 360.53 263.187 358.377 263.187 355.885C263.187 353.947 263.422 352.228 263.892 350.728C264.362 349.221 265.016 347.944 265.855 346.898C266.701 345.853 267.678 345.06 268.787 344.522C269.902 343.984 271.102 343.714 272.386 343.714C273.501 343.714 274.537 343.911 275.496 344.303C276.46 344.695 277.312 345.249 278.051 345.964C278.797 346.679 279.401 347.529 279.865 348.514C280.328 349.498 280.616 350.578 280.729 351.755H276.022Z" fill="white"/>
<path d="M288.328 344.037V367.663H283.677V344.037H288.328Z" fill="white"/>
<path d="M290.618 348.675V344.037H306.883V348.675H301.048V367.663H296.463V348.675H290.618Z" fill="white"/>
<path d="M310.913 367.663H305.915L312.407 344.037H318.599L325.092 367.663H320.093L315.574 349.99H315.424L310.913 367.663ZM310.246 358.365H320.695V362.703H310.246V358.365Z" fill="white"/>
<path d="M327.164 367.663V344.037H331.815V363.026H339.82V367.663H327.164Z" fill="white"/>
<path d="M353.963 368.021C352.61 368.021 351.442 367.725 350.458 367.133C349.481 366.541 348.73 365.745 348.203 364.745C347.677 363.737 347.414 362.618 347.414 361.388C347.414 360.48 347.558 359.68 347.846 358.988C348.141 358.288 348.545 357.646 349.059 357.062C349.578 356.47 350.183 355.889 350.872 355.32L354.912 352.147C355.369 351.794 355.692 351.421 355.88 351.028C356.074 350.636 356.171 350.244 356.171 349.852C356.171 349.429 356.036 349.044 355.767 348.698C355.504 348.352 355.113 348.183 354.593 348.19C354.261 348.19 353.973 348.275 353.728 348.444C353.484 348.613 353.293 348.84 353.155 349.125C353.024 349.409 352.958 349.732 352.958 350.094C352.958 350.563 353.067 351.044 353.287 351.536C353.506 352.028 353.8 352.551 354.17 353.105C354.546 353.659 354.962 354.27 355.42 354.939L364.637 367.663H359.958L352.244 357.385C351.805 356.785 351.345 356.112 350.862 355.366C350.38 354.62 349.973 353.805 349.641 352.92C349.309 352.028 349.143 351.059 349.143 350.013C349.143 348.837 349.369 347.771 349.82 346.818C350.271 345.864 350.903 345.107 351.718 344.545C352.538 343.976 353.493 343.691 354.583 343.691C355.636 343.691 356.544 343.957 357.308 344.487C358.072 345.018 358.661 345.722 359.075 346.599C359.488 347.475 359.695 348.437 359.695 349.483C359.695 350.59 359.472 351.609 359.028 352.54C358.583 353.462 357.953 354.282 357.139 354.997L353.183 358.469C352.764 358.838 352.435 359.234 352.197 359.657C351.959 360.073 351.84 360.526 351.84 361.019C351.84 361.526 351.937 361.968 352.131 362.345C352.331 362.722 352.613 363.018 352.977 363.234C353.34 363.449 353.766 363.557 354.254 363.557C354.906 363.557 355.557 363.368 356.209 362.991C356.86 362.607 357.455 362.068 357.994 361.376C358.533 360.676 358.965 359.85 359.291 358.896C359.616 357.935 359.779 356.881 359.779 355.735H363.481C363.481 357.15 363.359 358.465 363.115 359.68C362.87 360.888 362.504 361.972 362.015 362.934C361.533 363.887 360.935 364.679 360.221 365.31C359.995 365.464 359.776 365.61 359.563 365.748C359.35 365.887 359.131 366.033 358.905 366.187C358.166 366.841 357.364 367.31 356.5 367.594C355.642 367.879 354.796 368.021 353.963 368.021Z" fill="white"/>
<path d="M376.386 344.037V367.663H371.735V344.037H376.386Z" fill="white"/>
<path d="M395.683 344.037V367.663H391.737L384.079 354.028H383.957V367.663H379.306V344.037H383.309L390.882 357.65H391.042V344.037H395.683Z" fill="white"/>
<path d="M414.985 344.037V367.663H411.039L403.381 354.028H403.259V367.663H398.608V344.037H402.61L410.183 357.65H410.343V344.037H414.985Z" fill="white"/>
<path d="M436.072 355.85C436.072 358.45 435.664 360.653 434.85 362.461C434.036 364.268 432.933 365.641 431.543 366.579C430.158 367.517 428.605 367.986 426.882 367.986C425.154 367.986 423.597 367.513 422.213 366.568C420.828 365.622 419.729 364.249 418.915 362.449C418.107 360.642 417.703 358.442 417.703 355.85C417.703 353.251 418.107 351.048 418.915 349.24C419.729 347.433 420.828 346.06 422.213 345.122C423.597 344.184 425.154 343.714 426.882 343.714C428.605 343.714 430.158 344.184 431.543 345.122C432.933 346.06 434.036 347.433 434.85 349.24C435.664 351.048 436.072 353.251 436.072 355.85ZM431.317 355.85C431.317 354.312 431.139 353.013 430.782 351.951C430.431 350.89 429.923 350.086 429.26 349.54C428.602 348.994 427.809 348.721 426.882 348.721C425.962 348.721 425.169 348.994 424.505 349.54C423.841 350.086 423.331 350.89 422.974 351.951C422.623 353.013 422.448 354.312 422.448 355.85C422.448 357.389 422.623 358.688 422.974 359.75C423.331 360.811 423.841 361.615 424.505 362.161C425.169 362.707 425.962 362.98 426.882 362.98C427.809 362.98 428.602 362.707 429.26 362.161C429.923 361.615 430.431 360.811 430.782 359.75C431.139 358.688 431.317 357.389 431.317 355.85Z" fill="white"/>
<path d="M442.019 344.037L446.322 361.342H446.482L450.786 344.037H455.991L449.498 367.663H443.306L436.814 344.037H442.019Z" fill="white"/>
<path d="M459.357 367.663H454.358L460.851 344.037H467.043L473.535 367.663H468.537L464.017 349.99H463.867L459.357 367.663ZM458.69 358.365H469.138V362.703H458.69V358.365Z" fill="white"/>
<path d="M472.575 348.675V344.037H488.839V348.675H483.004V367.663H478.419V348.675H472.575Z" fill="white"/>
<path d="M495.761 344.037V367.663H491.11V344.037H495.761Z" fill="white"/>
<path d="M516.843 355.85C516.843 358.45 516.436 360.653 515.622 362.461C514.808 364.268 513.705 365.641 512.315 366.579C510.93 367.517 509.377 367.986 507.654 367.986C505.925 367.986 504.369 367.513 502.984 366.568C501.6 365.622 500.501 364.249 499.686 362.449C498.878 360.642 498.474 358.442 498.474 355.85C498.474 353.251 498.878 351.048 499.686 349.24C500.501 347.433 501.6 346.06 502.984 345.122C504.369 344.184 505.925 343.714 507.654 343.714C509.377 343.714 510.93 344.184 512.315 345.122C513.705 346.06 514.808 347.433 515.622 349.24C516.436 351.048 516.843 353.251 516.843 355.85ZM512.089 355.85C512.089 354.312 511.911 353.013 511.553 351.951C511.203 350.89 510.695 350.086 510.031 349.54C509.374 348.994 508.581 348.721 507.654 348.721C506.733 348.721 505.941 348.994 505.277 349.54C504.613 350.086 504.103 350.89 503.746 351.951C503.395 353.013 503.219 354.312 503.219 355.85C503.219 357.389 503.395 358.688 503.746 359.75C504.103 360.811 504.613 361.615 505.277 362.161C505.941 362.707 506.733 362.98 507.654 362.98C508.581 362.98 509.374 362.707 510.031 362.161C510.695 361.615 511.203 360.811 511.553 359.75C511.911 358.688 512.089 357.389 512.089 355.85Z" fill="white"/>
<path d="M535.936 344.037V367.663H531.99L524.332 354.028H524.21V367.663H519.559V344.037H523.561L531.135 357.65H531.294V344.037H535.936Z" fill="white"/>
<path d="M554.946 351.121C554.883 350.275 554.605 349.617 554.11 349.148C553.621 348.671 552.923 348.433 552.015 348.433C551.413 348.433 550.912 348.529 550.511 348.721C550.11 348.913 549.81 349.179 549.609 349.517C549.409 349.848 549.305 350.229 549.299 350.659C549.287 351.013 549.343 351.324 549.468 351.594C549.6 351.863 549.788 352.101 550.032 352.309C550.283 352.509 550.583 352.686 550.934 352.84C551.285 352.993 551.679 353.128 552.118 353.243L553.772 353.705C554.724 353.959 555.563 354.297 556.29 354.72C557.023 355.143 557.636 355.647 558.131 356.231C558.632 356.816 559.011 357.489 559.268 358.25C559.525 359.011 559.657 359.865 559.663 360.811C559.657 362.303 559.35 363.584 558.742 364.653C558.134 365.722 557.261 366.541 556.121 367.11C554.987 367.679 553.618 367.963 552.015 367.963C550.405 367.963 549.002 367.667 547.805 367.075C546.609 366.483 545.679 365.583 545.015 364.376C544.351 363.168 544.009 361.642 543.99 359.796H548.444C548.482 360.557 548.648 361.192 548.942 361.699C549.237 362.207 549.641 362.591 550.154 362.853C550.674 363.114 551.275 363.245 551.958 363.245C552.585 363.245 553.117 363.141 553.556 362.934C554 362.726 554.342 362.438 554.58 362.068C554.818 361.699 554.94 361.276 554.946 360.799C554.94 360.353 554.827 359.973 554.608 359.657C554.389 359.334 554.05 359.058 553.593 358.827C553.142 358.588 552.566 358.369 551.864 358.169L549.854 357.592C548.187 357.123 546.875 356.366 545.917 355.32C544.958 354.266 544.482 352.843 544.488 351.051C544.482 349.59 544.802 348.31 545.447 347.21C546.092 346.11 546.985 345.253 548.125 344.637C549.265 344.022 550.565 343.714 552.024 343.714C553.515 343.714 554.808 344.026 555.904 344.649C557.007 345.264 557.862 346.129 558.47 347.245C559.077 348.36 559.387 349.652 559.4 351.121H554.946Z" fill="white"/>
<path d="M562.012 367.663V344.037H566.663V354.028H566.916L573.277 344.037H578.755L571.934 354.581L578.877 367.663H573.315L568.523 358.377L566.663 361.261V367.663H562.012Z" fill="white"/>
<path d="M585.241 344.037V367.663H580.59V344.037H585.241Z" fill="white"/>
<path d="M588.161 367.663V344.037H592.812V363.026H600.817V367.663H588.161Z" fill="white"/>
<path d="M603.225 367.663V344.037H607.876V363.026H615.881V367.663H603.225Z" fill="white"/>
<path d="M628.69 351.121C628.627 350.275 628.348 349.617 627.854 349.148C627.365 348.671 626.667 348.433 625.758 348.433C625.157 348.433 624.656 348.529 624.255 348.721C623.854 348.913 623.553 349.179 623.353 349.517C623.152 349.848 623.049 350.229 623.043 350.659C623.03 351.013 623.087 351.324 623.212 351.594C623.344 351.863 623.531 352.101 623.776 352.309C624.026 352.509 624.327 352.686 624.678 352.84C625.029 352.993 625.423 353.128 625.862 353.243L627.515 353.705C628.467 353.959 629.307 354.297 630.033 354.72C630.766 355.143 631.38 355.647 631.875 356.231C632.376 356.816 632.755 357.489 633.012 358.25C633.269 359.011 633.4 359.865 633.407 360.811C633.4 362.303 633.093 363.584 632.486 364.653C631.878 365.722 631.004 366.541 629.864 367.11C628.731 367.679 627.362 367.963 625.758 367.963C624.148 367.963 622.745 367.667 621.549 367.075C620.353 366.483 619.422 365.583 618.758 364.376C618.094 363.168 617.753 361.642 617.734 359.796H622.188C622.225 360.557 622.391 361.192 622.686 361.699C622.98 362.207 623.384 362.591 623.898 362.853C624.418 363.114 625.019 363.245 625.702 363.245C626.328 363.245 626.861 363.141 627.299 362.934C627.744 362.726 628.085 362.438 628.323 362.068C628.561 361.699 628.684 361.276 628.69 360.799C628.684 360.353 628.571 359.973 628.352 359.657C628.132 359.334 627.794 359.058 627.337 358.827C626.886 358.588 626.309 358.369 625.608 358.169L623.597 357.592C621.931 357.123 620.619 356.366 619.66 355.32C618.702 354.266 618.226 352.843 618.232 351.051C618.226 349.59 618.545 348.31 619.191 347.21C619.836 346.11 620.728 345.253 621.868 344.637C623.008 344.022 624.308 343.714 625.768 343.714C627.259 343.714 628.552 344.026 629.648 344.649C630.751 345.264 631.606 346.129 632.213 347.245C632.821 348.36 633.131 349.652 633.143 351.121H628.69Z" fill="white"/>
<circle cx="98.2962" cy="424.153" r="10.5466" stroke="#FACA3F" stroke-width="9.171"/>
<circle cx="595.37" cy="424.153" r="10.5466" stroke="#FACA3F" stroke-width="9.171"/>
<circle cx="98.2962" cy="206.801" r="10.5466" stroke="#FACA3F" stroke-width="9.171"/>
<circle cx="595.37" cy="206.801" r="10.5466" stroke="#FACA3F" stroke-width="9.171"/>
<path d="M122.722 189.59L99.7204 177.384L104.668 168.966C105.682 167.241 106.839 165.957 108.141 165.114C109.446 164.263 110.829 163.832 112.289 163.821C113.747 163.798 115.209 164.176 116.676 164.955C118.151 165.738 119.251 166.724 119.976 167.914C120.698 169.093 121.007 170.431 120.902 171.929C120.791 173.423 120.228 175.032 119.214 176.756L115.69 182.752L112.231 180.917L115.433 175.469C116.026 174.46 116.369 173.559 116.462 172.765C116.548 171.967 116.404 171.268 116.031 170.667C115.654 170.054 115.057 169.532 114.241 169.099C113.425 168.666 112.636 168.453 111.875 168.461C111.106 168.466 110.383 168.71 109.706 169.194C109.021 169.674 108.38 170.422 107.783 171.438L105.592 175.165L125.112 185.523L122.722 189.59ZM119.116 172.462L132.805 172.435L130.137 176.973L116.506 176.901L119.116 172.462Z" fill="white"/>
<path d="M138.285 165.166L135.256 169.188L119.241 147.219L122.745 142.568L149.798 149.882L146.769 153.903L125.47 147.816L125.347 147.978L138.285 165.166ZM129.943 159.291L138.205 148.323L141.338 150.454L133.076 161.423L129.943 159.291Z" fill="white"/>
<path d="M136.764 126.093L156.958 142.533L153.8 146.037L133.606 129.597L136.764 126.093Z" fill="white"/>
<path d="M159.919 113.253C159.033 112.564 158.045 112.308 156.956 112.482C155.874 112.651 154.823 113.214 153.803 114.172C153.087 114.845 152.579 115.525 152.28 116.212C151.981 116.899 151.879 117.547 151.973 118.155C152.068 118.763 152.348 119.296 152.812 119.754C153.203 120.13 153.632 120.372 154.098 120.48C154.571 120.582 155.065 120.582 155.582 120.48C156.093 120.372 156.607 120.202 157.124 119.972C157.642 119.741 158.141 119.487 158.622 119.21L160.841 117.962C161.723 117.447 162.635 117.015 163.577 116.664C164.525 116.308 165.476 116.088 166.429 116.006C167.388 115.919 168.324 116.02 169.238 116.312C170.152 116.603 171.015 117.14 171.828 117.921C172.928 118.979 173.612 120.177 173.88 121.516C174.143 122.849 173.972 124.246 173.367 125.708C172.763 127.159 171.701 128.598 170.181 130.025C168.704 131.412 167.196 132.399 165.656 132.985C164.123 133.566 162.616 133.726 161.137 133.467C159.664 133.201 158.279 132.492 156.984 131.34L160.366 128.163C161.07 128.745 161.817 129.077 162.609 129.157C163.402 129.238 164.192 129.111 164.98 128.777C165.775 128.437 166.531 127.931 167.247 127.258C167.995 126.555 168.54 125.835 168.882 125.095C169.225 124.344 169.358 123.626 169.282 122.943C169.2 122.253 168.893 121.647 168.362 121.124C167.867 120.66 167.318 120.409 166.717 120.37C166.108 120.325 165.441 120.441 164.714 120.717C163.988 120.982 163.199 121.351 162.348 121.825L159.639 123.324C157.679 124.41 155.841 124.992 154.126 125.07C152.412 125.135 150.882 124.522 149.538 123.229C148.432 122.166 147.766 120.95 147.541 119.583C147.322 118.209 147.508 116.809 148.1 115.382C148.686 113.949 149.643 112.608 150.972 111.361C152.319 110.096 153.731 109.211 155.209 108.706C156.686 108.189 158.125 108.051 159.525 108.293C160.918 108.529 162.153 109.146 163.228 110.145L159.919 113.253Z" fill="white"/>
<path d="M169.311 96.2282L186.516 115.774L182.823 118.71L165.618 99.1635L169.311 96.2282Z" fill="white"/>
<path d="M196.245 77.5055L211.618 98.5227L208.117 100.835L187.408 93.2822L187.228 93.4013L197.699 107.717L193.763 110.317L178.39 89.3L181.912 86.9733L202.618 94.5438L202.809 94.4177L192.33 80.0915L196.245 77.5055Z" fill="white"/>
<path d="M225.455 71.5395C224.932 71.0351 224.371 70.6299 223.774 70.3238C223.18 70.0064 222.557 69.7937 221.906 69.6857C221.262 69.5738 220.597 69.5814 219.911 69.7084C219.222 69.8281 218.529 70.0632 217.832 70.4139C216.583 71.0429 215.641 71.9104 215.007 73.0166C214.373 74.1229 214.108 75.413 214.212 76.887C214.32 78.3499 214.849 79.9327 215.798 81.6356C216.756 83.3532 217.843 84.6689 219.06 85.5826C220.277 86.4963 221.551 87.0164 222.882 87.1428C224.209 87.2617 225.524 86.9934 226.826 86.3378C228.007 85.7432 228.905 85.0065 229.521 84.1277C230.144 83.2451 230.463 82.2785 230.478 81.2278C230.49 80.1696 230.188 79.089 229.573 77.9859L230.607 77.65L224.293 80.8289L222.497 77.6084L231.935 72.857L233.458 75.589C234.543 77.5361 235.058 79.4339 235.003 81.2823C234.947 83.1307 234.392 84.8135 233.338 86.3305C232.279 87.8402 230.788 89.0792 228.865 90.0473C226.722 91.1261 224.579 91.6031 222.434 91.4786C220.293 91.3428 218.284 90.6337 216.405 89.3513C214.53 88.0576 212.924 86.2114 211.587 83.8126C210.563 81.9765 209.914 80.2032 209.639 78.4927C209.372 76.7784 209.438 75.1757 209.838 73.6847C210.234 72.1863 210.933 70.8484 211.935 69.6709C212.932 68.4861 214.192 67.5105 215.714 66.7444C217.001 66.0964 218.304 65.6773 219.623 65.4872C220.938 65.2896 222.215 65.3105 223.454 65.5496C224.7 65.785 225.862 66.2244 226.938 66.8678C228.014 67.5112 228.951 68.348 229.748 69.3783L225.455 71.5395Z" fill="white"/>
<path d="M252.91 51.8695L262.099 76.2339L257.634 77.7547L248.445 53.3904L252.91 51.8695Z" fill="white"/>
<path d="M284.775 43.161L291.663 68.2729L287.59 69.2818L270.989 55.1271L270.779 55.179L275.471 72.2841L270.892 73.4183L264.004 48.3064L268.101 47.2914L284.694 61.4615L284.916 61.4064L280.221 44.2891L284.775 43.161Z" fill="white"/>
<path d="M317.204 38.4213L320.882 64.1998L316.72 64.736L302.046 48.7447L301.832 48.7724L304.337 66.3315L299.659 66.9342L295.981 41.1557L300.167 40.6163L314.831 56.6217L315.058 56.5925L312.551 39.0208L317.204 38.4213Z" fill="white"/>
<path d="M352.106 50.4102C352.143 53.2157 351.649 55.6248 350.624 57.6375C349.608 59.6416 348.204 61.184 346.412 62.2648C344.629 63.3455 342.598 63.8994 340.318 63.9263C338.038 63.9533 335.988 63.4477 334.169 62.4096C332.358 61.3629 330.914 59.8498 329.837 57.8705C328.768 55.8825 328.216 53.4901 328.179 50.6931C328.142 47.8876 328.632 45.4829 329.649 43.4788C330.674 41.4661 332.077 39.9194 333.86 38.8387C335.652 37.7579 337.688 37.204 339.968 37.177C342.248 37.1501 344.293 37.6557 346.104 38.6939C347.923 39.7321 349.367 41.2451 350.436 43.233C351.513 45.2124 352.07 47.6048 352.106 50.4102ZM347.364 50.4663C347.338 48.4915 347.007 46.8297 346.371 45.4809C345.743 44.1235 344.881 43.1037 343.787 42.4215C342.693 41.7309 341.439 41.3939 340.023 41.4106C338.608 41.4274 337.362 41.7939 336.286 42.5102C335.211 43.218 334.372 44.2579 333.771 45.6298C333.179 46.9931 332.896 48.6622 332.921 50.637C332.947 52.6119 333.274 54.278 333.902 55.6354C334.539 56.9841 335.404 58.0039 336.498 58.6945C337.592 59.3767 338.847 59.7094 340.262 59.6927C341.678 59.676 342.924 59.3137 343.999 58.6059C345.075 57.8896 345.909 56.8497 346.502 55.4864C347.103 54.1145 347.39 52.4411 347.364 50.4663Z" fill="white"/>
<path d="M366.042 38.4005L370.464 59.4582L370.729 59.4855L379.777 39.8132L384.938 40.3439L372.859 65.277L367.067 64.6813L360.894 37.8711L366.042 38.4005Z" fill="white"/>
<path d="M391.244 67.991L386.322 66.9261L401.35 43.5424L407.042 44.7741L409.946 72.0384L405.025 70.9734L403.051 49.3729L402.852 49.3298L391.244 67.991ZM393.784 58.0972L407.205 61.0016L406.323 64.6863L392.901 61.7819L393.784 58.0972Z" fill="white"/>
<path d="M422.289 52.6682L423.653 48.9565L443.372 55.4979L442.008 59.2097L434.369 56.6756L426.754 77.4065L422.313 75.9333L429.928 55.2023L422.289 52.6682Z" fill="white"/>
<path d="M467.734 80.4513C466.458 82.9498 464.887 84.8697 463.023 86.2108C461.17 87.5479 459.183 88.3101 457.061 88.4974C454.947 88.6881 452.855 88.3059 450.785 87.3508C448.715 86.3956 447.101 85.068 445.943 83.3681C444.797 81.6642 444.2 79.7052 444.152 77.491C444.115 75.2728 444.733 72.9182 446.006 70.4272C447.282 67.9286 448.847 66.0108 450.7 64.6736C452.564 63.3325 454.553 62.5665 456.667 62.3758C458.789 62.1885 460.884 62.5725 462.955 63.5277C465.025 64.4829 466.635 65.8086 467.785 67.505C468.943 69.2049 469.54 71.1639 469.576 73.3821C469.624 75.5963 469.01 77.9527 467.734 80.4513ZM463.428 78.4646C464.326 76.7058 464.803 75.0929 464.858 73.6259C464.925 72.1549 464.624 70.8827 463.955 69.8092C463.289 68.7282 462.314 67.8912 461.029 67.2982C459.743 66.7052 458.448 66.4947 457.143 66.6667C455.841 66.8312 454.599 67.3914 453.417 68.3475C452.246 69.2996 451.211 70.6551 450.312 72.4139C449.414 74.1727 448.931 75.7876 448.865 77.2585C448.809 78.7255 449.114 79.9995 449.78 81.0806C450.449 82.154 451.426 82.9873 452.711 83.5803C453.996 84.1733 455.29 84.3875 456.591 84.2231C457.896 84.0511 459.135 83.489 460.306 82.5369C461.489 81.5808 462.529 80.2234 463.428 78.4646Z" fill="white"/>
<path d="M468.104 95.4671L482.622 73.8501L490.971 78.9139C492.682 79.9513 493.923 81.1102 494.695 82.3905C495.475 83.6752 495.812 85.0185 495.707 86.4204C495.613 87.8197 495.104 89.2089 494.177 90.5881C493.246 91.9744 492.134 92.993 490.84 93.6441C489.558 94.2926 488.143 94.5387 486.596 94.3825C485.053 94.2193 483.426 93.6189 481.716 92.5816L475.769 88.9749L477.953 85.7239L483.356 89.0009C484.356 89.6075 485.265 89.9705 486.082 90.0899C486.904 90.2023 487.642 90.0905 488.296 89.7544C488.962 89.4156 489.553 88.8628 490.068 88.0957C490.583 87.3287 490.867 86.5798 490.919 85.849C490.976 85.1111 490.78 84.408 490.331 83.7397C489.887 83.0644 489.162 82.4212 488.154 81.8102L484.458 79.5684L472.138 97.9133L468.104 95.4671ZM486.185 92.6478L485.118 105.786L480.617 103.056L481.782 89.9775L486.185 92.6478Z" fill="white"/>
<path d="M513.775 103.473C514.397 102.553 514.557 101.589 514.255 100.582C513.959 99.5797 513.255 98.6548 512.143 97.8071C511.361 97.2112 510.594 96.8134 509.843 96.6137C509.093 96.4141 508.405 96.3956 507.78 96.5582C507.155 96.7209 506.629 97.0491 506.202 97.5428C505.852 97.9574 505.646 98.3914 505.585 98.8449C505.53 99.3035 505.585 99.7707 505.748 100.247C505.917 100.716 506.15 101.181 506.448 101.642C506.746 102.103 507.066 102.544 507.409 102.965L508.957 104.911C509.592 105.682 510.144 106.491 510.614 107.339C511.09 108.192 511.424 109.063 511.615 109.953C511.812 110.849 511.808 111.745 511.604 112.644C511.4 113.542 510.935 114.422 510.208 115.283C509.224 116.45 508.047 117.24 506.678 117.655C505.314 118.063 503.836 118.07 502.241 117.675C500.66 117.279 499.039 116.448 497.381 115.185C495.77 113.957 494.573 112.651 493.791 111.268C493.015 109.889 492.682 108.486 492.791 107.057C492.906 105.634 493.494 104.241 494.556 102.878L498.247 105.691C497.716 106.425 497.452 107.171 497.455 107.929C497.458 108.687 497.677 109.418 498.113 110.123C498.555 110.832 499.168 111.485 499.95 112.081C500.766 112.703 501.579 113.131 502.389 113.365C503.211 113.598 503.976 113.637 504.682 113.483C505.393 113.323 505.992 112.96 506.48 112.395C506.911 111.872 507.113 111.324 507.087 110.75C507.067 110.171 506.872 109.554 506.504 108.901C506.148 108.247 505.676 107.546 505.087 106.8L503.223 104.421C501.872 102.7 501.062 101.035 500.793 99.4242C500.535 97.8125 501.008 96.294 502.211 94.8688C503.2 93.6962 504.397 92.9211 505.801 92.5435C507.212 92.171 508.695 92.1785 510.251 92.566C511.813 92.947 513.319 93.6898 514.768 94.7943C516.238 95.9143 517.318 97.1417 518.008 98.4766C518.711 99.8102 519.013 101.152 518.914 102.503C518.821 103.848 518.311 105.088 517.386 106.225L513.775 103.473Z" fill="white"/>
<path d="M520.463 134.246L540.175 117.231L551.701 129.29L548.708 131.874L540.441 123.225L535.09 127.844L542.566 135.666L539.572 138.25L532.096 130.428L523.723 137.656L520.463 134.246Z" fill="white"/>
<path d="M561.637 162.76C559.324 164.347 557.025 165.289 554.739 165.584C552.466 165.881 550.347 165.61 548.381 164.772C546.42 163.941 544.75 162.618 543.37 160.802C541.99 158.987 541.191 157.06 540.972 155.023C540.766 152.988 541.166 150.989 542.172 149.025C543.191 147.063 544.853 145.29 547.16 143.708C549.473 142.12 551.766 141.178 554.04 140.881C556.325 140.586 558.448 140.854 560.409 141.685C562.375 142.523 564.048 143.85 565.427 145.665C566.807 147.481 567.603 149.404 567.817 151.434C568.036 153.471 567.636 155.47 566.617 157.433C565.611 159.396 563.951 161.172 561.637 162.76ZM558.768 158.984C560.396 157.866 561.583 156.677 562.326 155.417C563.082 154.159 563.419 152.902 563.335 151.645C563.259 150.383 562.793 149.188 561.936 148.061C561.08 146.934 560.033 146.137 558.797 145.672C557.567 145.201 556.203 145.106 554.703 145.385C553.215 145.667 551.658 146.366 550.029 147.484C548.401 148.601 547.208 149.789 546.452 151.047C545.709 152.307 545.375 153.568 545.451 154.83C545.535 156.087 546.004 157.279 546.861 158.406C547.717 159.534 548.76 160.332 549.99 160.803C551.226 161.269 552.588 161.361 554.076 161.079C555.576 160.8 557.14 160.101 558.768 158.984Z" fill="white"/>
<path d="M554.46 175.629L577.461 163.421L582.408 171.84C583.422 173.565 583.965 175.174 584.038 176.67C584.116 178.172 583.777 179.517 583.021 180.704C582.277 181.895 581.171 182.88 579.703 183.659C578.228 184.441 576.767 184.814 575.321 184.776C573.886 184.742 572.526 184.29 571.238 183.42C569.959 182.546 568.812 181.247 567.798 179.522L564.275 173.526L567.734 171.69L570.935 177.138C571.528 178.147 572.156 178.897 572.818 179.389C573.488 179.877 574.19 180.128 574.925 180.14C575.671 180.157 576.452 179.948 577.268 179.515C578.084 179.082 578.688 178.555 579.08 177.935C579.479 177.311 579.64 176.598 579.561 175.796C579.49 174.99 579.156 174.079 578.559 173.063L576.369 169.336L556.85 179.695L554.46 175.629ZM571.698 181.695L564.542 192.784L561.875 188.246L569.089 177.255L571.698 181.695Z" fill="white"/>
<path d="M129.264 438.206L132.148 436.857L140.04 451.604L137.156 452.953L134.099 447.24L117.992 454.771L116.215 451.45L132.321 443.919L129.264 438.206Z" fill="white"/>
<path d="M144.744 477.732C142.807 478.893 140.908 479.539 139.048 479.669C137.198 479.801 135.495 479.488 133.941 478.727C132.391 477.973 131.097 476.839 130.059 475.325C129.02 473.811 128.456 472.236 128.365 470.599C128.284 468.964 128.692 467.385 129.589 465.863C130.496 464.343 131.915 463.004 133.847 461.846C135.784 460.685 137.678 460.038 139.528 459.906C141.388 459.776 143.094 460.088 144.644 460.842C146.198 461.602 147.494 462.739 148.532 464.253C149.571 465.767 150.133 467.34 150.22 468.971C150.31 470.608 149.902 472.187 148.996 473.707C148.099 475.229 146.682 476.571 144.744 477.732ZM142.584 474.584C143.948 473.766 144.958 472.871 145.612 471.899C146.277 470.929 146.602 469.94 146.588 468.932C146.58 467.921 146.253 466.945 145.608 466.006C144.964 465.066 144.151 464.381 143.171 463.952C142.197 463.519 141.098 463.38 139.874 463.534C138.659 463.69 137.37 464.177 136.006 464.995C134.643 465.812 133.628 466.706 132.964 467.676C132.309 468.648 131.986 469.64 131.994 470.651C132.008 471.659 132.338 472.633 132.982 473.573C133.627 474.512 134.437 475.199 135.411 475.631C136.391 476.06 137.488 476.197 138.702 476.041C139.927 475.887 141.221 475.401 142.584 474.584Z" fill="white"/>
<path d="M157.761 477.787L160.843 481.266L152.958 495.222L153.121 495.406L169.26 490.766L172.342 494.244L155.765 507.077L153.348 504.35L164.737 495.533L164.608 495.388L149.425 499.83L147.62 497.792L155.142 484.658L155.013 484.512L143.6 493.347L141.183 490.62L157.761 477.787Z" fill="white"/>
<path d="M184.205 519.28C182.598 520.868 180.905 521.947 179.125 522.519C177.356 523.09 175.623 523.194 173.927 522.831C172.237 522.472 170.704 521.685 169.329 520.469C167.953 519.253 167.025 517.864 166.542 516.302C166.07 514.739 166.087 513.114 166.594 511.426C167.111 509.738 168.17 508.103 169.772 506.52C171.379 504.932 173.067 503.853 174.836 503.281C176.616 502.71 178.351 502.603 180.041 502.962C181.737 503.325 183.273 504.115 184.648 505.331C186.023 506.547 186.95 507.934 187.427 509.491C187.909 511.054 187.892 512.679 187.375 514.367C186.868 516.055 185.811 517.692 184.205 519.28ZM181.344 516.751C182.475 515.633 183.242 514.526 183.646 513.429C184.059 512.331 184.138 511.296 183.881 510.324C183.63 509.347 183.077 508.482 182.223 507.727C181.37 506.972 180.414 506.504 179.357 506.324C178.304 506.138 177.201 506.267 176.046 506.709C174.901 507.151 173.763 507.931 172.632 509.049C171.501 510.166 170.729 511.274 170.316 512.372C169.912 513.469 169.836 514.506 170.088 515.483C170.344 516.455 170.899 517.318 171.753 518.073C172.607 518.828 173.56 519.298 174.613 519.483C175.67 519.664 176.771 519.533 177.916 519.091C179.07 518.649 180.213 517.869 181.344 516.751Z" fill="white"/>
<path d="M184.278 532.794L197.527 516.547L203.929 521.108C205.241 522.043 206.165 523.044 206.7 524.111C207.242 525.182 207.421 526.271 207.238 527.379C207.066 528.485 206.557 529.556 205.712 530.593C204.862 531.635 203.891 532.373 202.799 532.807C201.716 533.24 200.555 533.345 199.314 533.121C198.077 532.892 196.803 532.31 195.491 531.376L190.931 528.127L192.923 525.683L197.067 528.635C197.834 529.182 198.544 529.529 199.197 529.676C199.854 529.818 200.459 529.777 201.011 529.552C201.574 529.326 202.09 528.924 202.56 528.348C203.03 527.771 203.312 527.194 203.405 526.617C203.502 526.034 203.393 525.462 203.076 524.902C202.764 524.337 202.221 523.779 201.449 523.229L198.614 521.209L187.371 534.997L184.278 532.794ZM199.102 531.716L197.325 542.089L193.874 539.63L195.725 529.31L199.102 531.716Z" fill="white"/>
<path d="M204.674 547.002L216.218 529.502L223.029 533.428C224.425 534.232 225.441 535.14 226.079 536.153C226.723 537.168 227.009 538.238 226.938 539.36C226.876 540.48 226.477 541.599 225.741 542.715C225 543.837 224.109 544.668 223.068 545.208C222.036 545.746 220.893 545.963 219.638 545.861C218.387 545.754 217.064 545.298 215.669 544.493L210.817 541.697L212.553 539.066L216.961 541.606C217.777 542.076 218.517 542.353 219.18 542.437C219.847 542.514 220.443 542.414 220.97 542.135C221.506 541.855 221.979 541.404 222.388 540.783C222.798 540.162 223.02 539.559 223.055 538.974C223.094 538.383 222.929 537.824 222.559 537.296C222.192 536.763 221.598 536.259 220.776 535.785L217.761 534.048L207.965 548.898L204.674 547.002ZM219.288 544.48L218.554 555.001L214.882 552.885L215.696 542.41L219.288 544.48Z" fill="white"/>
<path d="M248.371 557.655C247.342 559.666 246.074 561.216 244.568 562.304C243.071 563.389 241.465 564.014 239.749 564.18C238.04 564.349 236.347 564.059 234.671 563.309C232.995 562.56 231.688 561.509 230.75 560.156C229.821 558.8 229.336 557.236 229.294 555.463C229.261 553.687 229.758 551.796 230.784 549.791C231.813 547.781 233.076 546.233 234.573 545.148C236.079 544.059 237.687 543.431 239.396 543.262C241.112 543.096 242.808 543.388 244.483 544.137C246.159 544.886 247.463 545.936 248.395 547.286C249.334 548.639 249.819 550.203 249.852 551.98C249.893 553.753 249.4 555.644 248.371 557.655ZM244.885 556.097C245.61 554.681 245.993 553.386 246.036 552.21C246.088 551.032 245.843 550.015 245.3 549.161C244.761 548.3 243.971 547.637 242.93 547.172C241.89 546.706 240.842 546.548 239.787 546.695C238.734 546.837 237.73 547.295 236.775 548.07C235.829 548.841 234.994 549.934 234.269 551.35C233.545 552.765 233.157 554.062 233.105 555.241C233.062 556.416 233.311 557.434 233.85 558.295C234.392 559.15 235.184 559.81 236.224 560.275C237.265 560.74 238.311 560.902 239.363 560.76C240.419 560.613 241.419 560.153 242.365 559.382C243.321 558.607 244.161 557.512 244.885 556.097Z" fill="white"/>
<path d="M257.39 572.357L258.721 550.845L262.624 552.05L261.101 567.69L261.286 567.747L270.273 554.411L273.823 555.507L272.551 571.235L272.727 571.289L281.472 557.868L285.374 559.073L272.737 577.094L269.157 575.989L270.047 560.882L269.891 560.833L260.97 573.462L257.39 572.357Z" fill="white"/>
<path d="M295.046 560.978L293.203 568.473L290.441 567.88L292.284 560.385L295.046 560.978Z" fill="white"/>
<path d="M313.048 569.929C313.1 569.033 312.815 568.289 312.194 567.696C311.58 567.103 310.716 566.726 309.601 566.565C308.818 566.451 308.126 566.472 307.527 566.626C306.927 566.781 306.445 567.038 306.081 567.399C305.717 567.76 305.489 568.199 305.396 568.717C305.324 569.148 305.36 569.535 305.504 569.88C305.654 570.226 305.883 570.535 306.19 570.807C306.499 571.072 306.85 571.309 307.245 571.518C307.639 571.727 308.04 571.913 308.449 572.075L310.314 572.842C311.067 573.137 311.779 573.492 312.45 573.906C313.129 574.322 313.715 574.807 314.211 575.361C314.714 575.917 315.079 576.552 315.306 577.267C315.533 577.983 315.573 578.788 315.424 579.684C315.223 580.895 314.735 581.917 313.961 582.75C313.188 583.575 312.171 584.162 310.91 584.51C309.656 584.853 308.199 584.903 306.538 584.663C304.924 584.429 303.563 583.977 302.457 583.306C301.358 582.637 300.553 581.776 300.043 580.723C299.54 579.671 299.375 578.454 299.549 577.073L303.247 577.609C303.181 578.337 303.305 578.969 303.617 579.503C303.93 580.038 304.38 580.469 304.969 580.795C305.565 581.123 306.255 581.344 307.038 581.457C307.855 581.576 308.591 581.558 309.246 581.405C309.909 581.246 310.452 580.973 310.876 580.586C311.301 580.193 311.566 579.7 311.671 579.109C311.753 578.569 311.668 578.102 311.416 577.707C311.164 577.305 310.778 576.946 310.256 576.629C309.743 576.306 309.13 575.997 308.418 575.701L306.158 574.753C304.522 574.067 303.281 573.209 302.436 572.176C301.599 571.138 301.303 569.878 301.548 568.397C301.75 567.178 302.258 566.159 303.072 565.34C303.892 564.521 304.919 563.942 306.15 563.604C307.383 563.258 308.726 563.191 310.178 563.401C311.65 563.615 312.898 564.058 313.921 564.73C314.951 565.396 315.709 566.226 316.194 567.22C316.681 568.208 316.837 569.285 316.665 570.453L313.048 569.929Z" fill="white"/>
<path d="M344.423 587.339L337.319 587.327L337.362 566.363L344.609 566.376C346.691 566.379 348.478 566.802 349.971 567.644C351.47 568.479 352.621 569.679 353.423 571.243C354.225 572.808 354.624 574.678 354.62 576.855C354.615 579.039 354.205 580.915 353.39 582.483C352.582 584.051 351.416 585.253 349.892 586.09C348.376 586.927 346.553 587.343 344.423 587.339ZM341.124 584.048L344.246 584.053C345.706 584.056 346.925 583.792 347.902 583.261C348.879 582.724 349.614 581.923 350.108 580.86C350.601 579.789 350.85 578.452 350.853 576.848C350.856 575.245 350.613 573.913 350.124 572.855C349.635 571.789 348.91 570.993 347.948 570.466C346.994 569.932 345.807 569.664 344.388 569.661L341.153 569.655L341.124 584.048Z" fill="white"/>
<path d="M366.708 565.597L368.452 586.489L364.664 586.765L362.921 565.873L366.708 565.597Z" fill="white"/>
<path d="M389.945 569.488C389.683 568.969 389.366 568.517 388.995 568.131C388.63 567.737 388.215 567.417 387.75 567.169C387.291 566.921 386.786 566.759 386.233 566.683C385.679 566.601 385.091 566.606 384.47 566.7C383.357 566.867 382.413 567.296 381.638 567.985C380.864 568.674 380.32 569.597 380.007 570.755C379.7 571.905 379.679 573.254 379.945 574.801C380.214 576.361 380.688 577.645 381.367 578.654C382.046 579.663 382.872 580.384 383.847 580.817C384.82 581.243 385.887 581.369 387.048 581.194C388.101 581.036 388.977 580.697 389.677 580.178C390.383 579.658 390.882 578.996 391.173 578.194C391.463 577.384 391.522 576.479 391.35 575.476L392.222 575.48L386.594 576.326L386.091 573.4L394.503 572.136L394.93 574.617C395.234 576.386 395.12 577.973 394.586 579.378C394.052 580.783 393.184 581.934 391.982 582.833C390.779 583.724 389.32 584.299 387.606 584.557C385.696 584.844 383.946 584.669 382.354 584.032C380.769 583.387 379.435 582.335 378.353 580.877C377.277 579.41 376.552 577.588 376.177 575.409C375.89 573.741 375.869 572.215 376.116 570.833C376.369 569.45 376.846 568.236 377.546 567.193C378.244 566.142 379.129 565.292 380.201 564.641C381.272 563.983 382.485 563.552 383.842 563.348C384.989 563.176 386.087 563.183 387.137 563.37C388.186 563.55 389.148 563.889 390.022 564.385C390.904 564.88 391.667 565.511 392.311 566.276C392.955 567.042 393.442 567.921 393.772 568.913L389.945 569.488Z" fill="white"/>
<path d="M404.678 559.624L410.013 579.898L406.311 580.749L400.977 560.475L404.678 559.624Z" fill="white"/>
<path d="M412.927 560.957L411.872 557.953L427.863 553.048L428.918 556.052L422.723 557.952L428.613 574.728L425.011 575.833L419.121 559.056L412.927 560.957Z" fill="white"/>
<path d="M446.227 568.481L442.486 570.041L440.268 548.281L444.595 546.477L460.446 562.552L456.705 564.112L444.359 551.227L444.208 551.29L446.227 568.481ZM442.81 561.012L453.013 556.757L454.327 559.51L444.123 563.764L442.81 561.012Z" fill="white"/>
<path d="M468.462 558.461L457.577 540.545L460.932 538.764L470.164 553.96L478.319 549.631L479.972 552.352L468.462 558.461Z" fill="white"/>
<path d="M501.918 538.226L483.485 525.934L486.744 523.472L499.834 532.849L499.989 532.732L493.131 518.647L496.096 516.407L509.405 525.631L509.552 525.52L502.483 511.582L505.742 509.12L514.733 528.544L511.744 530.803L498.774 522.206L498.643 522.305L504.907 535.967L501.918 538.226Z" fill="white"/>
<path d="M531.415 498.807C533.098 500.314 534.236 501.9 534.83 503.565C535.425 505.221 535.519 506.841 535.115 508.425C534.715 510.005 533.858 511.435 532.544 512.718C531.23 514 529.736 514.864 528.06 515.31C526.384 515.747 524.645 515.726 522.845 515.248C521.044 514.76 519.305 513.765 517.627 512.263C515.944 510.756 514.806 509.175 514.212 507.519C513.617 505.853 513.52 504.231 513.92 502.652C514.325 501.067 515.184 499.634 516.498 498.352C517.811 497.07 519.304 496.208 520.975 495.767C522.651 495.32 524.389 495.341 526.189 495.829C527.99 496.308 529.732 497.301 531.415 498.807ZM528.682 501.474C527.497 500.413 526.32 499.693 525.15 499.313C523.98 498.923 522.874 498.847 521.832 499.083C520.784 499.316 519.853 499.83 519.037 500.626C518.222 501.422 517.712 502.314 517.509 503.302C517.301 504.285 517.428 505.317 517.89 506.398C518.352 507.469 519.175 508.535 520.36 509.596C521.544 510.656 522.722 511.381 523.892 511.771C525.062 512.151 526.171 512.226 527.218 511.993C528.26 511.756 529.189 511.24 530.004 510.444C530.82 509.648 531.332 508.758 531.54 507.775C531.743 506.787 531.614 505.757 531.152 504.686C530.69 503.605 529.867 502.535 528.682 501.474Z" fill="white"/>
<path d="M545.486 498.596L528.487 486.327L533.494 480.266C534.519 479.024 535.607 478.146 536.756 477.632C537.909 477.112 539.074 476.932 540.249 477.092C541.423 477.242 542.553 477.709 543.637 478.492C544.727 479.278 545.491 480.182 545.929 481.203C546.365 482.215 546.449 483.305 546.182 484.473C545.91 485.637 545.261 486.839 544.235 488.081L540.669 492.398L538.113 490.553L541.353 486.631C541.952 485.905 542.338 485.234 542.511 484.619C542.677 484.001 542.647 483.433 542.42 482.916C542.192 482.391 541.776 481.91 541.173 481.475C540.57 481.04 539.962 480.781 539.349 480.7C538.73 480.615 538.119 480.724 537.515 481.027C536.906 481.326 536.299 481.842 535.695 482.573L533.479 485.256L547.905 495.668L545.486 498.596ZM544.681 484.687L555.689 486.245L552.99 489.512L542.041 487.883L544.681 484.687Z" fill="white"/>
<path d="M560.459 479.448L542.418 468.77L544.548 465.626L559.849 474.682L565.028 467.038L567.767 468.659L560.459 479.448Z" fill="white"/>
<path d="M575.434 455.204L572.058 461.454L553.099 452.505L556.544 446.129C557.534 444.298 558.763 442.904 560.233 441.947C561.699 440.982 563.33 440.478 565.126 440.437C566.922 440.396 568.805 440.84 570.773 441.769C572.748 442.701 574.252 443.859 575.286 445.244C576.322 446.622 576.858 448.16 576.894 449.857C576.933 451.548 576.447 453.331 575.434 455.204ZM570.891 456.71L572.375 453.963C573.07 452.678 573.408 451.493 573.39 450.407C573.367 449.319 572.99 448.331 572.261 447.444C571.526 446.555 570.433 445.768 568.983 445.083C567.532 444.398 566.212 444.047 565.022 444.027C563.826 444.005 562.762 444.305 561.829 444.928C560.893 445.541 560.088 446.472 559.414 447.721L557.876 450.567L570.891 456.71Z" fill="white"/>
<path d="M275.239 166.22H262.287C262.114 164.89 261.76 163.69 261.225 162.619C260.689 161.549 259.981 160.633 259.1 159.873C258.22 159.113 257.175 158.535 255.966 158.138C254.774 157.723 253.453 157.516 252.002 157.516C249.429 157.516 247.21 158.146 245.345 159.407C243.497 160.668 242.072 162.49 241.07 164.873C240.086 167.256 239.594 170.14 239.594 173.525C239.594 177.048 240.095 180.002 241.096 182.385C242.115 184.751 243.54 186.538 245.371 187.747C247.219 188.939 249.403 189.535 251.925 189.535C253.341 189.535 254.627 189.353 255.785 188.991C256.959 188.628 257.987 188.101 258.867 187.411C259.765 186.702 260.499 185.848 261.069 184.846C261.656 183.827 262.062 182.679 262.287 181.401L275.239 181.478C275.015 183.827 274.333 186.141 273.193 188.421C272.07 190.7 270.525 192.782 268.556 194.664C266.587 196.529 264.186 198.014 261.354 199.12C258.539 200.225 255.31 200.778 251.666 200.778C246.865 200.778 242.564 199.724 238.765 197.617C234.983 195.493 231.995 192.402 229.802 188.343C227.608 184.285 226.512 179.345 226.512 173.525C226.512 167.688 227.626 162.74 229.854 158.682C232.081 154.623 235.095 151.541 238.894 149.434C242.694 147.327 246.951 146.273 251.666 146.273C254.878 146.273 257.848 146.722 260.577 147.62C263.306 148.501 265.706 149.796 267.779 151.506C269.851 153.198 271.535 155.28 272.83 157.749C274.125 160.219 274.928 163.042 275.239 166.22ZM289.701 200.803C287.836 200.803 286.238 200.147 284.908 198.835C283.596 197.522 282.948 195.933 282.966 194.068C282.948 192.238 283.596 190.675 284.908 189.379C286.238 188.067 287.836 187.411 289.701 187.411C291.462 187.411 293.017 188.067 294.364 189.379C295.728 190.675 296.419 192.238 296.436 194.068C296.419 195.312 296.091 196.443 295.452 197.462C294.83 198.481 294.01 199.292 292.991 199.897C291.989 200.501 290.893 200.803 289.701 200.803ZM324.414 200.052H304.804V146.999H324.388C329.793 146.999 334.448 148.061 338.351 150.185C342.271 152.292 345.293 155.331 347.418 159.303C349.542 163.258 350.604 167.99 350.604 173.499C350.604 179.026 349.542 183.775 347.418 187.747C345.311 191.719 342.297 194.768 338.377 196.892C334.456 198.999 329.802 200.052 324.414 200.052ZM317.627 189.12H323.922C326.892 189.12 329.405 188.619 331.46 187.618C333.532 186.599 335.095 184.95 336.149 182.67C337.22 180.373 337.755 177.316 337.755 173.499C337.755 169.683 337.22 166.643 336.149 164.381C335.078 162.101 333.498 160.461 331.408 159.459C329.336 158.44 326.78 157.93 323.74 157.93H317.627V189.12ZM361.866 200.803C360.001 200.803 358.403 200.147 357.074 198.835C355.761 197.522 355.114 195.933 355.131 194.068C355.114 192.238 355.761 190.675 357.074 189.379C358.403 188.067 360.001 187.411 361.866 187.411C363.628 187.411 365.182 188.067 366.529 189.379C367.893 190.675 368.584 192.238 368.601 194.068C368.584 195.312 368.256 196.443 367.617 197.462C366.995 198.481 366.175 199.292 365.156 199.897C364.154 200.501 363.058 200.803 361.866 200.803ZM389.792 146.999V200.052H376.969V146.999H389.792ZM404.966 200.803C403.101 200.803 401.503 200.147 400.173 198.835C398.861 197.522 398.213 195.933 398.23 194.068C398.213 192.238 398.861 190.675 400.173 189.379C401.503 188.067 403.101 187.411 404.966 187.411C406.727 187.411 408.282 188.067 409.629 189.379C410.993 190.675 411.684 192.238 411.701 194.068C411.684 195.312 411.356 196.443 410.717 197.462C410.095 198.481 409.275 199.292 408.256 199.897C407.254 200.501 406.157 200.803 404.966 200.803ZM448.745 162.904C448.573 161.005 447.804 159.528 446.44 158.475C445.093 157.404 443.167 156.868 440.663 156.868C439.005 156.868 437.624 157.084 436.518 157.516C435.413 157.948 434.584 158.544 434.031 159.303C433.479 160.046 433.194 160.901 433.176 161.868C433.142 162.662 433.297 163.362 433.643 163.966C434.005 164.571 434.524 165.106 435.197 165.573C435.888 166.022 436.717 166.419 437.684 166.764C438.651 167.11 439.739 167.412 440.948 167.671L445.507 168.707C448.132 169.277 450.447 170.037 452.45 170.987C454.471 171.937 456.163 173.068 457.527 174.38C458.909 175.693 459.954 177.204 460.662 178.914C461.37 180.623 461.733 182.54 461.75 184.665C461.733 188.015 460.886 190.89 459.211 193.291C457.536 195.692 455.127 197.531 451.984 198.809C448.858 200.087 445.084 200.726 440.663 200.726C436.225 200.726 432.356 200.061 429.058 198.731C425.759 197.401 423.194 195.381 421.364 192.669C419.533 189.958 418.592 186.53 418.54 182.385H430.819C430.923 184.095 431.38 185.519 432.192 186.659C433.004 187.799 434.118 188.663 435.534 189.25C436.967 189.837 438.625 190.131 440.508 190.131C442.235 190.131 443.703 189.897 444.912 189.431C446.138 188.965 447.079 188.317 447.735 187.488C448.391 186.659 448.728 185.709 448.745 184.639C448.728 183.637 448.417 182.782 447.813 182.074C447.208 181.349 446.276 180.727 445.015 180.209C443.772 179.674 442.183 179.181 440.249 178.732L434.705 177.437C430.111 176.384 426.493 174.682 423.851 172.334C421.208 169.968 419.896 166.773 419.913 162.749C419.896 159.468 420.777 156.592 422.555 154.122C424.334 151.653 426.795 149.727 429.938 148.346C433.082 146.964 436.665 146.273 440.689 146.273C444.799 146.273 448.366 146.973 451.388 148.371C454.427 149.753 456.785 151.696 458.46 154.2C460.135 156.704 460.99 159.606 461.025 162.904H448.745Z" fill="url(#paint4_linear_93_89)"/>
<path d="M252.957 453.523V427.97H263.513C265.426 427.97 267.077 428.315 268.467 429.005C269.864 429.687 270.941 430.669 271.698 431.95C272.455 433.222 272.834 434.732 272.834 436.479C272.834 438.251 272.447 439.756 271.673 440.996C270.9 442.227 269.802 443.167 268.379 443.816C266.957 444.456 265.272 444.776 263.326 444.776H256.651V439.91H262.178C263.11 439.91 263.887 439.79 264.511 439.548C265.144 439.299 265.622 438.925 265.946 438.425C266.271 437.918 266.433 437.269 266.433 436.479C266.433 435.689 266.271 435.036 265.946 434.52C265.622 433.996 265.144 433.605 264.511 433.347C263.879 433.081 263.101 432.948 262.178 432.948H259.134V453.523H252.957ZM267.344 441.844L273.707 453.523H266.969L260.731 441.844H267.344ZM299.416 437.228H293.178C293.095 436.587 292.924 436.009 292.666 435.493C292.408 434.978 292.067 434.537 291.643 434.171C291.219 433.805 290.716 433.526 290.133 433.335C289.559 433.135 288.923 433.035 288.224 433.035C286.985 433.035 285.916 433.339 285.018 433.946C284.128 434.553 283.441 435.431 282.959 436.579C282.485 437.727 282.248 439.116 282.248 440.746C282.248 442.443 282.489 443.866 282.971 445.013C283.462 446.153 284.148 447.014 285.03 447.596C285.92 448.17 286.972 448.457 288.187 448.457C288.869 448.457 289.489 448.37 290.046 448.195C290.612 448.02 291.107 447.767 291.531 447.434C291.963 447.093 292.317 446.681 292.591 446.199C292.874 445.708 293.07 445.155 293.178 444.539L299.416 444.577C299.308 445.708 298.98 446.823 298.431 447.921C297.89 449.019 297.146 450.021 296.197 450.928C295.249 451.826 294.093 452.541 292.729 453.074C291.373 453.606 289.817 453.872 288.062 453.872C285.75 453.872 283.678 453.365 281.848 452.35C280.027 451.327 278.588 449.838 277.531 447.883C276.475 445.928 275.947 443.549 275.947 440.746C275.947 437.935 276.483 435.552 277.556 433.597C278.629 431.642 280.081 430.157 281.911 429.142C283.741 428.128 285.791 427.62 288.062 427.62C289.609 427.62 291.04 427.836 292.354 428.269C293.669 428.693 294.825 429.317 295.823 430.141C296.821 430.956 297.632 431.958 298.256 433.148C298.88 434.337 299.267 435.697 299.416 437.228ZM322.265 427.97V453.523H316.102V433.734H315.952L310.237 437.228V431.887L316.538 427.97H322.265ZM337.697 453.872C335.833 453.872 334.178 453.535 332.731 452.862C331.283 452.188 330.14 451.26 329.299 450.079C328.468 448.898 328.035 447.542 328.002 446.012H333.991C334.041 446.952 334.423 447.709 335.139 448.283C335.854 448.848 336.707 449.131 337.697 449.131C338.47 449.131 339.156 448.96 339.755 448.619C340.354 448.278 340.824 447.8 341.165 447.185C341.506 446.561 341.673 445.845 341.664 445.038C341.673 444.215 341.502 443.495 341.153 442.88C340.812 442.264 340.338 441.786 339.73 441.445C339.131 441.096 338.441 440.921 337.659 440.921C336.919 440.913 336.216 441.075 335.551 441.408C334.893 441.74 334.394 442.194 334.053 442.768L328.601 441.744L329.711 427.97H346.106V432.948H334.789L334.203 438.974H334.353C334.777 438.267 335.459 437.685 336.399 437.228C337.347 436.762 338.424 436.529 339.631 436.529C341.161 436.529 342.525 436.887 343.723 437.602C344.929 438.309 345.878 439.291 346.568 440.547C347.267 441.803 347.616 443.242 347.616 444.864C347.616 446.619 347.2 448.174 346.368 449.53C345.545 450.886 344.389 451.951 342.9 452.724C341.419 453.49 339.685 453.872 337.697 453.872ZM360.988 453.872C359 453.872 357.225 453.556 355.661 452.924C354.105 452.284 352.882 451.418 351.992 450.329C351.111 449.231 350.67 447.991 350.67 446.611C350.67 445.554 350.924 444.585 351.431 443.703C351.938 442.822 352.625 442.09 353.49 441.507C354.363 440.917 355.336 440.538 356.409 440.372V440.172C355.004 439.914 353.852 439.261 352.953 438.213C352.063 437.165 351.618 435.938 351.618 434.533C351.618 433.202 352.022 432.016 352.828 430.977C353.644 429.937 354.754 429.117 356.16 428.519C357.574 427.92 359.183 427.62 360.988 427.62C362.794 427.62 364.399 427.92 365.805 428.519C367.219 429.117 368.329 429.937 369.136 430.977C369.951 432.016 370.359 433.202 370.359 434.533C370.359 435.947 369.906 437.178 368.999 438.226C368.101 439.266 366.957 439.914 365.568 440.172V440.372C366.632 440.538 367.597 440.917 368.462 441.507C369.336 442.09 370.026 442.822 370.534 443.703C371.049 444.585 371.307 445.554 371.307 446.611C371.307 447.991 370.862 449.231 369.972 450.329C369.082 451.418 367.859 452.284 366.304 452.924C364.757 453.556 362.985 453.872 360.988 453.872ZM360.988 449.493C361.745 449.493 362.411 449.351 362.985 449.069C363.559 448.777 364.008 448.374 364.332 447.858C364.665 447.343 364.831 446.76 364.831 446.111C364.831 445.446 364.665 444.855 364.332 444.34C364 443.824 363.542 443.421 362.96 443.129C362.386 442.83 361.729 442.68 360.988 442.68C360.256 442.68 359.599 442.83 359.017 443.129C358.435 443.421 357.977 443.824 357.645 444.34C357.312 444.855 357.146 445.446 357.146 446.111C357.146 446.76 357.308 447.343 357.632 447.858C357.965 448.366 358.418 448.765 358.992 449.056C359.574 449.347 360.24 449.493 360.988 449.493ZM360.988 438.326C361.637 438.326 362.211 438.193 362.71 437.926C363.218 437.66 363.613 437.29 363.896 436.816C364.187 436.342 364.332 435.805 364.332 435.206C364.332 434.607 364.187 434.079 363.896 433.622C363.613 433.164 363.222 432.807 362.723 432.549C362.224 432.283 361.646 432.149 360.988 432.149C360.34 432.149 359.762 432.283 359.254 432.549C358.747 432.807 358.352 433.164 358.069 433.622C357.786 434.079 357.645 434.607 357.645 435.206C357.645 435.805 357.786 436.342 358.069 436.816C358.36 437.282 358.759 437.652 359.267 437.926C359.774 438.193 360.348 438.326 360.988 438.326ZM384.371 427.62C385.768 427.62 387.103 427.849 388.376 428.306C389.649 428.756 390.784 429.475 391.782 430.465C392.781 431.447 393.567 432.74 394.141 434.345C394.714 435.951 395.001 437.91 395.001 440.222C395.01 442.352 394.76 444.261 394.253 445.949C393.745 447.63 393.018 449.06 392.069 450.241C391.129 451.423 389.998 452.325 388.675 452.949C387.353 453.565 385.876 453.872 384.246 453.872C382.449 453.872 380.865 453.527 379.492 452.837C378.128 452.138 377.034 451.198 376.211 450.017C375.396 448.836 374.909 447.513 374.751 446.049H380.827C381.019 446.898 381.422 447.538 382.038 447.971C382.653 448.395 383.389 448.607 384.246 448.607C385.81 448.607 386.979 447.929 387.752 446.573C388.526 445.217 388.913 443.375 388.913 441.046H388.763C388.405 441.811 387.898 442.468 387.241 443.017C386.592 443.566 385.839 443.986 384.982 444.277C384.125 444.568 383.223 444.714 382.275 444.714C380.744 444.714 379.392 444.365 378.22 443.666C377.055 442.967 376.14 442.006 375.475 440.784C374.817 439.561 374.485 438.163 374.476 436.591C374.468 434.828 374.88 433.272 375.712 431.925C376.543 430.569 377.704 429.513 379.193 428.756C380.682 427.99 382.408 427.612 384.371 427.62ZM384.408 432.362C383.643 432.362 382.961 432.54 382.362 432.898C381.771 433.256 381.306 433.738 380.965 434.345C380.624 434.953 380.457 435.635 380.465 436.392C380.474 437.149 380.644 437.831 380.977 438.438C381.318 439.045 381.78 439.528 382.362 439.885C382.953 440.243 383.626 440.422 384.383 440.422C384.949 440.422 385.473 440.318 385.955 440.11C386.438 439.902 386.858 439.615 387.216 439.249C387.573 438.875 387.852 438.442 388.052 437.951C388.26 437.461 388.359 436.937 388.351 436.379C388.343 435.639 388.168 434.965 387.827 434.358C387.486 433.751 387.016 433.268 386.417 432.911C385.827 432.545 385.157 432.362 384.408 432.362ZM408.112 453.872C406.165 453.872 404.439 453.54 402.934 452.874C401.437 452.2 400.255 451.273 399.39 450.092C398.525 448.911 398.084 447.551 398.068 446.012H404.281C404.306 446.569 404.485 447.064 404.818 447.496C405.151 447.921 405.604 448.253 406.178 448.495C406.752 448.736 407.405 448.856 408.137 448.856C408.869 448.856 409.514 448.728 410.071 448.47C410.636 448.203 411.077 447.842 411.393 447.384C411.71 446.918 411.863 446.386 411.855 445.787C411.863 445.188 411.693 444.656 411.344 444.19C410.994 443.724 410.499 443.362 409.859 443.104C409.227 442.847 408.478 442.718 407.613 442.718H405.13V438.326H407.613C408.37 438.326 409.035 438.201 409.609 437.951C410.191 437.702 410.645 437.352 410.969 436.903C411.294 436.446 411.452 435.922 411.443 435.331C411.452 434.757 411.314 434.254 411.032 433.821C410.757 433.381 410.37 433.039 409.871 432.798C409.38 432.557 408.811 432.436 408.162 432.436C407.48 432.436 406.86 432.557 406.303 432.798C405.754 433.039 405.317 433.381 404.993 433.821C404.668 434.262 404.498 434.774 404.481 435.356H398.579C398.596 433.834 399.02 432.495 399.852 431.338C400.684 430.174 401.815 429.263 403.246 428.606C404.685 427.949 406.324 427.62 408.162 427.62C409.992 427.62 411.601 427.94 412.991 428.581C414.38 429.221 415.461 430.095 416.235 431.201C417.008 432.299 417.395 433.543 417.395 434.932C417.403 436.371 416.933 437.556 415.985 438.488C415.045 439.42 413.835 439.993 412.354 440.21V440.409C414.334 440.642 415.827 441.283 416.834 442.331C417.848 443.379 418.352 444.689 418.343 446.261C418.343 447.742 417.907 449.056 417.033 450.204C416.168 451.344 414.962 452.242 413.415 452.899C411.876 453.548 410.108 453.872 408.112 453.872ZM431.547 453.872C429.601 453.872 427.875 453.54 426.369 452.874C424.872 452.2 423.691 451.273 422.826 450.092C421.961 448.911 421.52 447.551 421.503 446.012H427.717C427.742 446.569 427.921 447.064 428.253 447.496C428.586 447.921 429.039 448.253 429.613 448.495C430.187 448.736 430.84 448.856 431.572 448.856C432.304 448.856 432.949 448.728 433.506 448.47C434.072 448.203 434.513 447.842 434.829 447.384C435.145 446.918 435.299 446.386 435.29 445.787C435.299 445.188 435.128 444.656 434.779 444.19C434.43 443.724 433.935 443.362 433.294 443.104C432.662 442.847 431.913 442.718 431.048 442.718H428.565V438.326H431.048C431.805 438.326 432.471 438.201 433.045 437.951C433.627 437.702 434.08 437.352 434.405 436.903C434.729 436.446 434.887 435.922 434.879 435.331C434.887 434.757 434.75 434.254 434.467 433.821C434.192 433.381 433.806 433.039 433.307 432.798C432.816 432.557 432.246 432.436 431.597 432.436C430.915 432.436 430.295 432.557 429.738 432.798C429.189 433.039 428.752 433.381 428.428 433.821C428.104 434.262 427.933 434.774 427.916 435.356H422.015C422.031 433.834 422.456 432.495 423.287 431.338C424.119 430.174 425.25 429.263 426.681 428.606C428.12 427.949 429.759 427.62 431.597 427.62C433.427 427.62 435.037 427.94 436.426 428.581C437.815 429.221 438.896 430.095 439.67 431.201C440.444 432.299 440.83 433.543 440.83 434.932C440.839 436.371 440.369 437.556 439.42 438.488C438.48 439.42 437.27 439.993 435.79 440.21V440.409C437.769 440.642 439.262 441.283 440.269 442.331C441.284 443.379 441.787 444.689 441.779 446.261C441.779 447.742 441.342 449.056 440.469 450.204C439.603 451.344 438.397 452.242 436.85 452.899C435.311 453.548 433.544 453.872 431.547 453.872Z" fill="url(#paint5_linear_93_89)"/>
<path d="M841.185 403.975H758.912V181.392H841.077C863.755 181.392 883.282 185.848 899.657 194.76C916.104 203.6 928.784 216.352 937.696 233.016C946.608 249.609 951.064 269.461 951.064 292.575C951.064 315.76 946.608 335.686 937.696 352.35C928.856 369.015 916.213 381.803 899.765 390.715C883.318 399.555 863.791 403.975 841.185 403.975ZM812.71 358.11H839.12C851.583 358.11 862.125 356.009 870.747 351.807C879.442 347.532 885.999 340.612 890.419 331.048C894.911 321.412 897.157 308.587 897.157 292.575C897.157 276.562 894.911 263.81 890.419 254.318C885.926 244.754 879.297 237.871 870.53 233.669C861.835 229.394 851.112 227.256 838.359 227.256H812.71V358.11ZM1017.47 403.975H959.65L1034.75 181.392H1106.37L1181.47 403.975H1123.65L1071.38 237.472H1069.64L1017.47 403.975ZM1009.75 316.376H1130.61V357.241H1009.75V316.376ZM1205.44 403.975V181.392H1297.38C1314.05 181.392 1328.43 184.399 1340.53 190.413C1352.7 196.354 1362.08 204.904 1368.68 216.062C1375.27 227.148 1378.57 240.298 1378.57 255.514C1378.57 270.947 1375.2 284.061 1368.46 294.857C1361.72 305.58 1352.16 313.768 1339.77 319.419C1327.38 324.998 1312.71 327.788 1295.75 327.788H1237.61V285.402H1285.75C1293.87 285.402 1300.64 284.351 1306.08 282.25C1311.58 280.076 1315.75 276.816 1318.57 272.468C1321.4 268.049 1322.81 262.397 1322.81 255.514C1322.81 248.631 1321.4 242.943 1318.57 238.451C1315.75 233.886 1311.58 230.48 1306.08 228.234C1300.57 225.916 1293.8 224.757 1285.75 224.757H1259.23V403.975H1205.44ZM1330.75 302.247L1386.18 403.975H1327.49L1273.15 302.247H1330.75ZM1542.73 181.392H1596.42V324.962C1596.42 341.554 1592.47 356.009 1584.58 368.327C1576.68 380.572 1565.67 390.063 1551.54 396.802C1537.41 403.467 1521 406.8 1502.3 406.8C1483.39 406.8 1466.87 403.467 1452.74 396.802C1438.62 390.063 1427.64 380.572 1419.81 368.327C1411.99 356.009 1408.08 341.554 1408.08 324.962V181.392H1461.87V320.289C1461.87 327.969 1463.54 334.816 1466.87 340.83C1470.28 346.844 1475.02 351.553 1481.11 354.959C1487.2 358.364 1494.26 360.067 1502.3 360.067C1510.35 360.067 1517.37 358.364 1523.39 354.959C1529.47 351.553 1534.22 346.844 1537.63 340.83C1541.03 334.816 1542.73 327.969 1542.73 320.289V181.392ZM1630.14 403.975V181.392H1683.94V360.284H1776.54V403.975H1630.14ZM1923.94 181.392V403.975H1870.14V181.392H1923.94ZM1957.71 403.975V181.392H2011.51V270.729H2099.22V181.392H2152.91V403.975H2099.22V314.529H2011.51V403.975H1957.71ZM2306.96 248.123C2306.24 240.153 2303.02 233.958 2297.29 229.539C2291.64 225.046 2283.56 222.8 2273.06 222.8C2266.1 222.8 2260.3 223.706 2255.67 225.517C2251.03 227.329 2247.55 229.828 2245.23 233.016C2242.91 236.132 2241.72 239.719 2241.65 243.776C2241.5 247.109 2242.15 250.043 2243.6 252.579C2245.12 255.115 2247.3 257.361 2250.12 259.318C2253.02 261.201 2256.5 262.868 2260.56 264.317C2264.61 265.766 2269.18 267.034 2274.25 268.121L2293.38 272.468C2304.39 274.859 2314.1 278.047 2322.51 282.032C2330.98 286.017 2338.08 290.763 2343.81 296.27C2349.6 301.776 2353.99 308.116 2356.96 315.289C2359.93 322.462 2361.45 330.505 2361.52 339.417C2361.45 353.473 2357.9 365.537 2350.87 375.608C2343.84 385.68 2333.74 393.396 2320.55 398.758C2307.44 404.12 2291.6 406.8 2273.06 406.8C2254.43 406.8 2238.2 404.011 2224.37 398.432C2210.53 392.853 2199.77 384.375 2192.09 373C2184.41 361.625 2180.46 347.242 2180.24 329.853H2231.76C2232.19 337.026 2234.11 343.004 2237.52 347.786C2240.92 352.568 2245.59 356.19 2251.54 358.654C2257.55 361.117 2264.51 362.349 2272.4 362.349C2279.65 362.349 2285.81 361.371 2290.88 359.415C2296.02 357.458 2299.97 354.741 2302.73 351.263C2305.48 347.786 2306.89 343.801 2306.96 339.308C2306.89 335.106 2305.59 331.519 2303.05 328.549C2300.52 325.506 2296.6 322.897 2291.31 320.724C2286.1 318.477 2279.43 316.412 2271.32 314.529L2248.06 309.094C2228.79 304.675 2213.61 297.538 2202.52 287.684C2191.43 277.758 2185.93 264.353 2186 247.471C2185.93 233.705 2189.62 221.641 2197.09 211.28C2204.55 200.919 2214.87 192.84 2228.06 187.044C2241.25 181.247 2256.28 178.349 2273.16 178.349C2290.41 178.349 2305.37 181.283 2318.05 187.152C2330.8 192.949 2340.69 201.1 2347.72 211.606C2354.75 222.112 2358.34 234.284 2358.48 248.123H2306.96ZM2429.97 403.975H2372.15L2447.25 181.392H2518.87L2593.97 403.975H2536.15L2483.87 237.472H2482.13L2429.97 403.975ZM2422.25 316.376H2543.11V357.241H2422.25V316.376ZM2807.37 181.392V403.975H2761.72L2673.14 275.511H2671.73V403.975H2617.93V181.392H2664.23L2751.83 309.638H2753.68V181.392H2807.37Z" fill="url(#paint6_linear_93_89)"/>
<path d="M822.493 456.483H805.59C805.365 454.352 804.903 452.429 804.204 450.714C803.506 448.998 802.582 447.532 801.432 446.314C800.283 445.097 798.92 444.17 797.342 443.534C795.787 442.869 794.063 442.537 792.17 442.537C788.812 442.537 785.916 443.547 783.482 445.567C781.071 447.587 779.212 450.506 777.904 454.325C776.62 458.143 775.978 462.764 775.978 468.187C775.978 473.832 776.631 478.563 777.938 482.382C779.268 486.173 781.127 489.036 783.516 490.973C785.927 492.883 788.778 493.837 792.069 493.837C793.917 493.837 795.596 493.547 797.105 492.966C798.638 492.385 799.979 491.541 801.128 490.434C802.3 489.299 803.258 487.93 804.002 486.325C804.768 484.692 805.297 482.852 805.59 480.805L822.493 480.929C822.2 484.692 821.31 488.4 819.822 492.052C818.357 495.705 816.34 499.039 813.771 502.055C811.202 505.043 808.069 507.423 804.373 509.194C800.7 510.965 796.486 511.85 791.731 511.85C785.465 511.85 779.854 510.162 774.896 506.787C769.96 503.383 766.062 498.43 763.199 491.928C760.337 485.426 758.906 477.512 758.906 468.187C758.906 458.835 760.36 450.908 763.267 444.405C766.174 437.903 770.107 432.964 775.065 429.588C780.023 426.212 785.578 424.524 791.731 424.524C795.922 424.524 799.799 425.244 803.359 426.683C806.92 428.094 810.053 430.169 812.757 432.908C815.461 435.62 817.659 438.954 819.349 442.911C821.039 446.868 822.087 451.392 822.493 456.483Z" fill="url(#paint7_linear_93_89)"/>
<path d="M832.068 510.688V425.687H880.341V442.371H848.801V459.803H877.873V476.53H848.801V494.003H880.341V510.688H832.068Z" fill="url(#paint8_linear_93_89)"/>
<path d="M949.742 425.687V510.688H935.544L907.993 461.63H907.554V510.688H890.82V425.687H905.221L932.467 474.662H933.042V425.687H949.742Z" fill="url(#paint9_linear_93_89)"/>
<path d="M957.998 442.371V425.687H1016.51V442.371H995.522V510.688H979.025V442.371H957.998Z" fill="url(#paint10_linear_93_89)"/>
<path d="M1024.69 510.688V425.687H1072.96V442.371H1041.42V459.803H1070.49V476.53H1041.42V494.003H1072.96V510.688H1024.69Z" fill="url(#paint11_linear_93_89)"/>
<path d="M1083.44 510.688V425.687H1112.04C1117.22 425.687 1121.69 426.835 1125.46 429.131C1129.24 431.4 1132.16 434.665 1134.21 438.927C1136.26 443.16 1137.29 448.182 1137.29 453.993C1137.29 459.886 1136.24 464.895 1134.15 469.017C1132.05 473.113 1129.07 476.239 1125.22 478.397C1121.37 480.528 1116.8 481.593 1111.53 481.593H1093.44V465.406H1108.42C1110.94 465.406 1113.05 465.005 1114.74 464.203C1116.45 463.373 1117.75 462.128 1118.63 460.467C1119.51 458.78 1119.95 456.621 1119.95 453.993C1119.95 451.364 1119.51 449.192 1118.63 447.476C1117.75 445.733 1116.45 444.433 1114.74 443.575C1113.03 442.69 1110.92 442.247 1108.42 442.247H1100.17V510.688H1083.44ZM1122.42 471.84L1139.66 510.688H1121.4L1104.5 471.84H1122.42Z" fill="url(#paint12_linear_93_89)"/>
<path d="M1166.92 510.688V425.687H1214.18V442.371H1183.65V459.803H1211.17V476.53H1183.65V510.688H1166.92Z" fill="url(#paint13_linear_93_89)"/>
<path d="M1287.95 468.187C1287.95 477.54 1286.48 485.467 1283.55 491.969C1280.62 498.472 1276.66 503.411 1271.65 506.787C1266.67 510.162 1261.08 511.85 1254.89 511.85C1248.67 511.85 1243.07 510.148 1238.09 506.745C1233.11 503.342 1229.15 498.403 1226.22 491.928C1223.31 485.426 1221.86 477.512 1221.86 468.187C1221.86 458.835 1223.31 450.908 1226.22 444.405C1229.15 437.903 1233.11 432.964 1238.09 429.588C1243.07 426.212 1248.67 424.524 1254.89 424.524C1261.08 424.524 1266.67 426.212 1271.65 429.588C1276.66 432.964 1280.62 437.903 1283.55 444.405C1286.48 450.908 1287.95 458.835 1287.95 468.187ZM1270.84 468.187C1270.84 462.653 1270.2 457.977 1268.92 454.159C1267.65 450.34 1265.83 447.449 1263.44 445.484C1261.07 443.52 1258.22 442.537 1254.89 442.537C1251.57 442.537 1248.72 443.52 1246.33 445.484C1243.95 447.449 1242.11 450.34 1240.82 454.159C1239.56 457.977 1238.93 462.653 1238.93 468.187C1238.93 473.721 1239.56 478.397 1240.82 482.216C1242.11 486.034 1243.95 488.926 1246.33 490.89C1248.72 492.855 1251.57 493.837 1254.89 493.837C1258.22 493.837 1261.07 492.855 1263.44 490.89C1265.83 488.926 1267.65 486.034 1268.92 482.216C1270.2 478.397 1270.84 473.721 1270.84 468.187Z" fill="url(#paint14_linear_93_89)"/>
<path d="M1297.72 510.688V425.687H1326.32C1331.5 425.687 1335.97 426.835 1339.74 429.131C1343.52 431.4 1346.44 434.665 1348.49 438.927C1350.54 443.16 1351.57 448.182 1351.57 453.993C1351.57 459.886 1350.52 464.895 1348.42 469.017C1346.33 473.113 1343.35 476.239 1339.5 478.397C1335.65 480.528 1331.08 481.593 1325.81 481.593H1307.72V465.406H1322.7C1325.22 465.406 1327.33 465.005 1329.02 464.203C1330.73 463.373 1332.03 462.128 1332.91 460.467C1333.79 458.78 1334.23 456.621 1334.23 453.993C1334.23 451.364 1333.79 449.192 1332.91 447.476C1332.03 445.733 1330.73 444.433 1329.02 443.575C1327.31 442.69 1325.2 442.247 1322.7 442.247H1314.45V510.688H1297.72ZM1336.69 471.84L1353.93 510.688H1335.68L1318.78 471.84H1336.69Z" fill="url(#paint15_linear_93_89)"/>
<path d="M1406.79 510.688H1381.2V425.687H1406.75C1413.81 425.687 1419.88 427.388 1424.98 430.792C1430.09 434.167 1434.03 439.037 1436.81 445.401C1439.58 451.738 1440.96 459.319 1440.96 468.146C1440.96 477 1439.58 484.609 1436.81 490.973C1434.06 497.337 1430.12 502.221 1425.01 505.624C1419.89 509 1413.82 510.688 1406.79 510.688ZM1397.93 493.173H1406.15C1410.02 493.173 1413.3 492.371 1415.98 490.766C1418.69 489.133 1420.73 486.491 1422.1 482.838C1423.5 479.158 1424.2 474.261 1424.2 468.146C1424.2 462.031 1423.5 457.161 1422.1 453.536C1420.7 449.884 1418.64 447.255 1415.92 445.65C1413.21 444.018 1409.88 443.202 1405.91 443.202H1397.93V493.173Z" fill="url(#paint16_linear_93_89)"/>
<path d="M1467.47 425.687V510.688H1450.73V425.687H1467.47Z" fill="url(#paint17_linear_93_89)"/>
<path d="M1523.41 453.453C1523.02 451.71 1522.46 450.174 1521.72 448.846C1520.97 447.49 1520.06 446.342 1518.98 445.401C1517.9 444.46 1516.66 443.755 1515.26 443.285C1513.86 442.786 1512.33 442.537 1510.66 442.537C1507.3 442.537 1504.4 443.534 1501.94 445.526C1499.51 447.518 1497.62 450.423 1496.29 454.242C1494.96 458.033 1494.3 462.64 1494.3 468.063C1494.3 473.514 1494.94 478.162 1496.23 482.008C1497.51 485.854 1499.37 488.787 1501.8 490.807C1504.24 492.827 1507.19 493.837 1510.66 493.837C1513.73 493.837 1516.32 493.228 1518.44 492.011C1520.58 490.766 1522.2 489.009 1523.3 486.74C1524.41 484.471 1524.96 481.801 1524.96 478.729L1528.07 479.186H1511.24V464.203H1541.09V475.451C1541.09 483.06 1539.77 489.576 1537.13 494.999C1534.52 500.423 1530.91 504.587 1526.31 507.492C1521.74 510.398 1516.48 511.85 1510.53 511.85C1503.92 511.85 1498.12 510.093 1493.12 506.579C1488.11 503.065 1484.21 498.057 1481.42 491.554C1478.63 485.024 1477.23 477.277 1477.23 468.312C1477.23 461.339 1478.07 455.155 1479.76 449.759C1481.45 444.336 1483.81 439.743 1486.83 435.98C1489.87 432.217 1493.39 429.367 1497.38 427.43C1501.39 425.493 1505.7 424.524 1510.32 424.524C1514.33 424.524 1518.06 425.23 1521.51 426.641C1524.98 428.052 1528.05 430.045 1530.71 432.618C1533.39 435.191 1535.56 438.249 1537.23 441.79C1538.9 445.332 1539.94 449.22 1540.34 453.453H1523.41Z" fill="url(#paint18_linear_93_89)"/>
<path d="M1567.68 425.687V510.688H1550.95V425.687H1567.68Z" fill="url(#paint19_linear_93_89)"/>
<path d="M1575.92 442.371V425.687H1634.44V442.371H1613.44V510.688H1596.95V442.371H1575.92Z" fill="url(#paint20_linear_93_89)"/>
<path d="M1648.94 510.688H1630.95L1654.31 425.687H1676.59L1699.95 510.688H1681.97L1665.71 447.103H1665.17L1648.94 510.688ZM1646.54 477.235H1684.13V492.841H1646.54V477.235Z" fill="url(#paint21_linear_93_89)"/>
<path d="M1707.4 510.688V425.687H1724.14V494.003H1752.94V510.688H1707.4Z" fill="url(#paint22_linear_93_89)"/>
<path d="M1803.82 511.975C1798.96 511.975 1794.75 510.909 1791.21 508.779C1787.7 506.648 1784.99 503.784 1783.1 500.187C1781.21 496.563 1780.26 492.537 1780.26 488.11C1780.26 484.844 1780.78 481.967 1781.82 479.477C1782.88 476.959 1784.33 474.648 1786.18 472.545C1788.05 470.415 1790.22 468.326 1792.7 466.278L1807.24 454.864C1808.88 453.592 1810.04 452.25 1810.72 450.838C1811.42 449.427 1811.77 448.016 1811.77 446.605C1811.77 445.083 1811.28 443.7 1810.31 442.454C1809.37 441.209 1807.96 440.601 1806.09 440.628C1804.89 440.628 1803.86 440.933 1802.98 441.541C1802.1 442.15 1801.41 442.966 1800.92 443.99C1800.44 445.014 1800.21 446.176 1800.21 447.476C1800.21 449.164 1800.6 450.894 1801.39 452.665C1802.18 454.435 1803.24 456.317 1804.57 458.309C1805.92 460.301 1807.42 462.501 1809.06 464.908L1842.23 510.688H1825.39L1797.64 473.707C1796.06 471.549 1794.4 469.128 1792.67 466.444C1790.93 463.76 1789.47 460.827 1788.27 457.645C1787.08 454.435 1786.48 450.949 1786.48 447.186C1786.48 442.952 1787.29 439.12 1788.92 435.689C1790.54 432.258 1792.81 429.533 1795.74 427.513C1798.7 425.465 1802.13 424.441 1806.05 424.441C1809.84 424.441 1813.11 425.396 1815.86 427.305C1818.61 429.214 1820.73 431.746 1822.21 434.901C1823.7 438.055 1824.44 441.514 1824.44 445.277C1824.44 449.261 1823.64 452.927 1822.04 456.275C1820.44 459.596 1818.18 462.543 1815.25 465.116L1801.02 477.609C1799.51 478.937 1798.32 480.362 1797.47 481.884C1796.61 483.378 1796.18 485.011 1796.18 486.781C1796.18 488.608 1796.53 490.199 1797.23 491.554C1797.95 492.91 1798.97 493.976 1800.27 494.75C1801.58 495.525 1803.11 495.912 1804.87 495.912C1807.21 495.912 1809.56 495.234 1811.9 493.879C1814.25 492.495 1816.39 490.558 1818.33 488.068C1820.26 485.55 1821.82 482.576 1822.99 479.145C1824.16 475.686 1824.75 471.895 1824.75 467.772H1838.07C1838.07 472.863 1837.63 477.595 1836.75 481.967C1835.87 486.311 1834.55 490.212 1832.79 493.671C1831.06 497.102 1828.91 499.952 1826.34 502.221C1825.53 502.775 1824.74 503.3 1823.97 503.798C1823.2 504.296 1822.42 504.822 1821.6 505.375C1818.95 507.727 1816.06 509.415 1812.95 510.439C1809.86 511.463 1806.82 511.975 1803.82 511.975Z" fill="url(#paint23_linear_93_89)"/>
<path d="M1884.5 425.687V510.688H1867.76V425.687H1884.5Z" fill="url(#paint24_linear_93_89)"/>
<path d="M1953.92 425.687V510.688H1939.73L1912.18 461.63H1911.74V510.688H1895V425.687H1909.4L1936.65 474.662H1937.22V425.687H1953.92Z" fill="url(#paint25_linear_93_89)"/>
<path d="M2023.37 425.687V510.688H2009.17L1981.62 461.63H1981.18V510.688H1964.45V425.687H1978.85L2006.09 474.662H2006.67V425.687H2023.37Z" fill="url(#paint26_linear_93_89)"/>
<path d="M2099.23 468.187C2099.23 477.54 2097.77 485.467 2094.84 491.969C2091.91 498.472 2087.94 503.411 2082.94 506.787C2077.96 510.162 2072.37 511.85 2066.17 511.85C2059.95 511.85 2054.35 510.148 2049.37 506.745C2044.39 503.342 2040.44 498.403 2037.51 491.928C2034.6 485.426 2033.15 477.512 2033.15 468.187C2033.15 458.835 2034.6 450.908 2037.51 444.405C2040.44 437.903 2044.39 432.964 2049.37 429.588C2054.35 426.212 2059.95 424.524 2066.17 424.524C2072.37 424.524 2077.96 426.212 2082.94 429.588C2087.94 432.964 2091.91 437.903 2094.84 444.405C2097.77 450.908 2099.23 458.835 2099.23 468.187ZM2082.13 468.187C2082.13 462.653 2081.49 457.977 2080.2 454.159C2078.94 450.34 2077.11 447.449 2074.72 445.484C2072.36 443.52 2069.51 442.537 2066.17 442.537C2062.86 442.537 2060.01 443.52 2057.62 445.484C2055.23 447.449 2053.39 450.34 2052.11 454.159C2050.85 457.977 2050.22 462.653 2050.22 468.187C2050.22 473.721 2050.85 478.397 2052.11 482.216C2053.39 486.034 2055.23 488.926 2057.62 490.89C2060.01 492.855 2062.86 493.837 2066.17 493.837C2069.51 493.837 2072.36 492.855 2074.72 490.89C2077.11 488.926 2078.94 486.034 2080.2 482.216C2081.49 478.397 2082.13 473.721 2082.13 468.187Z" fill="url(#paint27_linear_93_89)"/>
<path d="M2120.63 425.687L2136.11 487.944H2136.69L2152.17 425.687H2170.9L2147.54 510.688H2125.26L2101.9 425.687H2120.63Z" fill="url(#paint28_linear_93_89)"/>
<path d="M2183.01 510.688H2165.03L2188.38 425.687H2210.66L2234.02 510.688H2216.04L2199.78 447.103H2199.24L2183.01 510.688ZM2180.61 477.235H2218.2V492.841H2180.61V477.235Z" fill="url(#paint29_linear_93_89)"/>
<path d="M2230.56 442.371V425.687H2289.08V442.371H2268.09V510.688H2251.59V442.371H2230.56Z" fill="url(#paint30_linear_93_89)"/>
<path d="M2313.99 425.687V510.688H2297.25V425.687H2313.99Z" fill="url(#paint31_linear_93_89)"/>
<path d="M2389.83 468.187C2389.83 477.54 2388.37 485.467 2385.44 491.969C2382.51 498.472 2378.54 503.411 2373.54 506.787C2368.56 510.162 2362.97 511.85 2356.77 511.85C2350.55 511.85 2344.95 510.148 2339.97 506.745C2334.99 503.342 2331.04 498.403 2328.11 491.928C2325.2 485.426 2323.75 477.512 2323.75 468.187C2323.75 458.835 2325.2 450.908 2328.11 444.405C2331.04 437.903 2334.99 432.964 2339.97 429.588C2344.95 426.212 2350.55 424.524 2356.77 424.524C2362.97 424.524 2368.56 426.212 2373.54 429.588C2378.54 432.964 2382.51 437.903 2385.44 444.405C2388.37 450.908 2389.83 458.835 2389.83 468.187ZM2372.73 468.187C2372.73 462.653 2372.09 457.977 2370.8 454.159C2369.54 450.34 2367.71 447.449 2365.33 445.484C2362.96 443.52 2360.11 442.537 2356.77 442.537C2353.46 442.537 2350.61 443.52 2348.22 445.484C2345.83 447.449 2344 450.34 2342.71 454.159C2341.45 457.977 2340.82 462.653 2340.82 468.187C2340.82 473.721 2341.45 478.397 2342.71 482.216C2344 486.034 2345.83 488.926 2348.22 490.89C2350.61 492.855 2353.46 493.837 2356.77 493.837C2360.11 493.837 2362.96 492.855 2365.33 490.89C2367.71 488.926 2369.54 486.034 2370.8 482.216C2372.09 478.397 2372.73 473.721 2372.73 468.187Z" fill="url(#paint32_linear_93_89)"/>
<path d="M2458.53 425.687V510.688H2444.33L2416.78 461.63H2416.34V510.688H2399.6V425.687H2414L2441.25 474.662H2441.83V425.687H2458.53Z" fill="url(#paint33_linear_93_89)"/>
<path d="M2526.92 451.17C2526.69 448.127 2525.69 445.761 2523.91 444.073C2522.15 442.358 2519.64 441.5 2516.37 441.5C2514.21 441.5 2512.41 441.846 2510.96 442.537C2509.52 443.229 2508.44 444.184 2507.72 445.401C2507 446.591 2506.63 447.961 2506.6 449.51C2506.56 450.783 2506.76 451.904 2507.21 452.872C2507.69 453.841 2508.36 454.698 2509.24 455.445C2510.14 456.165 2511.22 456.801 2512.49 457.355C2513.75 457.908 2515.17 458.392 2516.75 458.807L2522.69 460.467C2526.12 461.381 2529.14 462.598 2531.75 464.12C2534.39 465.642 2536.6 467.454 2538.38 469.557C2540.18 471.66 2541.55 474.081 2542.47 476.82C2543.39 479.56 2543.87 482.631 2543.89 486.034C2543.87 491.402 2542.76 496.009 2540.58 499.855C2538.39 503.701 2535.25 506.648 2531.15 508.696C2527.07 510.743 2522.14 511.767 2516.37 511.767C2510.58 511.767 2505.53 510.702 2501.23 508.571C2496.92 506.441 2493.58 503.203 2491.19 498.859C2488.8 494.515 2487.57 489.023 2487.5 482.382H2503.53C2503.66 485.121 2504.26 487.404 2505.32 489.23C2506.38 491.056 2507.83 492.44 2509.68 493.381C2511.55 494.321 2513.71 494.792 2516.17 494.792C2518.42 494.792 2520.34 494.418 2521.92 493.671C2523.52 492.924 2524.75 491.886 2525.6 490.558C2526.46 489.23 2526.9 487.708 2526.92 485.993C2526.9 484.388 2526.49 483.018 2525.7 481.884C2524.91 480.722 2523.7 479.726 2522.05 478.895C2520.43 478.038 2518.36 477.249 2515.83 476.53L2508.6 474.455C2502.6 472.767 2497.88 470.041 2494.43 466.278C2490.99 462.487 2489.27 457.368 2489.3 450.921C2489.27 445.664 2490.42 441.057 2492.74 437.1C2495.07 433.144 2498.28 430.058 2502.38 427.845C2506.48 425.631 2511.16 424.524 2516.41 424.524C2521.77 424.524 2526.42 425.645 2530.37 427.886C2534.33 430.1 2537.41 433.213 2539.6 437.225C2541.78 441.237 2542.9 445.885 2542.94 451.17H2526.92Z" fill="url(#paint34_linear_93_89)"/>
<path d="M2552.34 510.688V425.687H2569.07V461.63H2569.99L2592.87 425.687H2612.58L2588.04 463.622L2613.02 510.688H2593.01L2575.77 477.277L2569.07 487.653V510.688H2552.34Z" fill="url(#paint35_linear_93_89)"/>
<path d="M2635.91 425.687V510.688H2619.18V425.687H2635.91Z" fill="url(#paint36_linear_93_89)"/>
<path d="M2646.42 510.688V425.687H2663.15V494.003H2691.95V510.688H2646.42Z" fill="url(#paint37_linear_93_89)"/>
<path d="M2700.62 510.688V425.687H2717.35V494.003H2746.15V510.688H2700.62Z" fill="url(#paint38_linear_93_89)"/>
<path d="M2792.24 451.17C2792.01 448.127 2791.01 445.761 2789.23 444.073C2787.47 442.358 2784.96 441.5 2781.69 441.5C2779.53 441.5 2777.72 441.846 2776.28 442.537C2774.84 443.229 2773.76 444.184 2773.03 445.401C2772.31 446.591 2771.94 447.961 2771.92 449.51C2771.87 450.783 2772.08 451.904 2772.53 452.872C2773 453.841 2773.68 454.698 2774.56 455.445C2775.46 456.165 2776.54 456.801 2777.8 457.355C2779.06 457.908 2780.48 458.392 2782.06 458.807L2788.01 460.467C2791.44 461.381 2794.46 462.598 2797.07 464.12C2799.71 465.642 2801.91 467.454 2803.7 469.557C2805.5 471.66 2806.86 474.081 2807.79 476.82C2808.71 479.56 2809.18 482.631 2809.21 486.034C2809.18 491.402 2808.08 496.009 2805.89 499.855C2803.71 503.701 2800.56 506.648 2796.46 508.696C2792.38 510.743 2787.46 511.767 2781.69 511.767C2775.9 511.767 2770.85 510.702 2766.54 508.571C2762.24 506.441 2758.89 503.203 2756.5 498.859C2754.12 494.515 2752.89 489.023 2752.82 482.382H2768.84C2768.98 485.121 2769.58 487.404 2770.63 489.23C2771.69 491.056 2773.15 492.44 2775 493.381C2776.87 494.321 2779.03 494.792 2781.49 494.792C2783.74 494.792 2785.65 494.418 2787.23 493.671C2788.83 492.924 2790.06 491.886 2790.92 490.558C2791.77 489.23 2792.21 487.708 2792.24 485.993C2792.21 484.388 2791.81 483.018 2791.02 481.884C2790.23 480.722 2789.01 479.726 2787.37 478.895C2785.75 478.038 2783.67 477.249 2781.15 476.53L2773.91 474.455C2767.92 472.767 2763.2 470.041 2759.75 466.278C2756.3 462.487 2754.59 457.368 2754.61 450.921C2754.59 445.664 2755.74 441.057 2758.06 437.1C2760.38 433.144 2763.59 430.058 2767.69 427.845C2771.8 425.631 2776.47 424.524 2781.72 424.524C2787.09 424.524 2791.74 425.645 2795.68 427.886C2799.65 430.1 2802.73 433.213 2804.91 437.225C2807.1 441.237 2808.21 445.885 2808.26 451.17H2792.24Z" fill="url(#paint39_linear_93_89)"/>
<defs>
<linearGradient id="paint0_linear_93_89" x1="346.381" y1="11" x2="346.381" y2="608.949" gradientUnits="userSpaceOnUse">
<stop stop-color="#3746A4"/>
<stop offset="1" stop-color="#1856C8"/>
</linearGradient>
<linearGradient id="paint1_linear_93_89" x1="347.759" y1="90.7876" x2="347.759" y2="528.244" gradientUnits="userSpaceOnUse">
<stop stop-color="#FDD91A"/>
<stop offset="1" stop-color="#F49732"/>
</linearGradient>
<linearGradient id="paint2_linear_93_89" x1="347.533" y1="253.859" x2="347.533" y2="381.122" gradientUnits="userSpaceOnUse">
<stop stop-color="#3746A4"/>
<stop offset="1" stop-color="#1856C8"/>
</linearGradient>
<linearGradient id="paint3_linear_93_89" x1="682.065" y1="370.525" x2="625.936" y2="124.574" gradientUnits="userSpaceOnUse">
<stop stop-color="#FFF21E"/>
<stop offset="1" stop-color="#FF9C00"/>
</linearGradient>
<linearGradient id="paint4_linear_93_89" x1="344.066" y1="129.052" x2="344.066" y2="217.052" gradientUnits="userSpaceOnUse">
<stop stop-color="#3746A4"/>
<stop offset="1" stop-color="#1856C8"/>
</linearGradient>
<linearGradient id="paint5_linear_93_89" x1="347.523" y1="419.523" x2="347.523" y2="462.523" gradientUnits="userSpaceOnUse">
<stop stop-color="#3746A4"/>
<stop offset="1" stop-color="#1856C8"/>
</linearGradient>
<linearGradient id="paint6_linear_93_89" x1="1783.57" y1="107.975" x2="1783.57" y2="477.975" gradientUnits="userSpaceOnUse">
<stop stop-color="#3746A4"/>
<stop offset="1" stop-color="#1856C8"/>
</linearGradient>
<linearGradient id="paint7_linear_93_89" x1="2809.21" y1="504.686" x2="2800.11" y2="327.172" gradientUnits="userSpaceOnUse">
<stop stop-color="#FFF21E"/>
<stop offset="1" stop-color="#FF9C00"/>
</linearGradient>
<linearGradient id="paint8_linear_93_89" x1="2809.21" y1="504.686" x2="2800.11" y2="327.172" gradientUnits="userSpaceOnUse">
<stop stop-color="#FFF21E"/>
<stop offset="1" stop-color="#FF9C00"/>
</linearGradient>
<linearGradient id="paint9_linear_93_89" x1="2809.21" y1="504.686" x2="2800.11" y2="327.172" gradientUnits="userSpaceOnUse">
<stop stop-color="#FFF21E"/>
<stop offset="1" stop-color="#FF9C00"/>
</linearGradient>
<linearGradient id="paint10_linear_93_89" x1="2809.21" y1="504.686" x2="2800.11" y2="327.172" gradientUnits="userSpaceOnUse">
<stop stop-color="#FFF21E"/>
<stop offset="1" stop-color="#FF9C00"/>
</linearGradient>
<linearGradient id="paint11_linear_93_89" x1="2809.21" y1="504.686" x2="2800.11" y2="327.172" gradientUnits="userSpaceOnUse">
<stop stop-color="#FFF21E"/>
<stop offset="1" stop-color="#FF9C00"/>
</linearGradient>
<linearGradient id="paint12_linear_93_89" x1="2809.21" y1="504.686" x2="2800.11" y2="327.172" gradientUnits="userSpaceOnUse">
<stop stop-color="#FFF21E"/>
<stop offset="1" stop-color="#FF9C00"/>
</linearGradient>
<linearGradient id="paint13_linear_93_89" x1="2809.21" y1="504.686" x2="2800.11" y2="327.172" gradientUnits="userSpaceOnUse">
<stop stop-color="#FFF21E"/>
<stop offset="1" stop-color="#FF9C00"/>
</linearGradient>
<linearGradient id="paint14_linear_93_89" x1="2809.21" y1="504.686" x2="2800.11" y2="327.172" gradientUnits="userSpaceOnUse">
<stop stop-color="#FFF21E"/>
<stop offset="1" stop-color="#FF9C00"/>
</linearGradient>
<linearGradient id="paint15_linear_93_89" x1="2809.21" y1="504.686" x2="2800.11" y2="327.172" gradientUnits="userSpaceOnUse">
<stop stop-color="#FFF21E"/>
<stop offset="1" stop-color="#FF9C00"/>
</linearGradient>
<linearGradient id="paint16_linear_93_89" x1="2809.21" y1="504.686" x2="2800.11" y2="327.172" gradientUnits="userSpaceOnUse">
<stop stop-color="#FFF21E"/>
<stop offset="1" stop-color="#FF9C00"/>
</linearGradient>
<linearGradient id="paint17_linear_93_89" x1="2809.21" y1="504.686" x2="2800.11" y2="327.172" gradientUnits="userSpaceOnUse">
<stop stop-color="#FFF21E"/>
<stop offset="1" stop-color="#FF9C00"/>
</linearGradient>
<linearGradient id="paint18_linear_93_89" x1="2809.21" y1="504.686" x2="2800.11" y2="327.172" gradientUnits="userSpaceOnUse">
<stop stop-color="#FFF21E"/>
<stop offset="1" stop-color="#FF9C00"/>
</linearGradient>
<linearGradient id="paint19_linear_93_89" x1="2809.21" y1="504.686" x2="2800.11" y2="327.172" gradientUnits="userSpaceOnUse">
<stop stop-color="#FFF21E"/>
<stop offset="1" stop-color="#FF9C00"/>
</linearGradient>
<linearGradient id="paint20_linear_93_89" x1="2809.21" y1="504.686" x2="2800.11" y2="327.172" gradientUnits="userSpaceOnUse">
<stop stop-color="#FFF21E"/>
<stop offset="1" stop-color="#FF9C00"/>
</linearGradient>
<linearGradient id="paint21_linear_93_89" x1="2809.21" y1="504.686" x2="2800.11" y2="327.172" gradientUnits="userSpaceOnUse">
<stop stop-color="#FFF21E"/>
<stop offset="1" stop-color="#FF9C00"/>
</linearGradient>
<linearGradient id="paint22_linear_93_89" x1="2809.21" y1="504.686" x2="2800.11" y2="327.172" gradientUnits="userSpaceOnUse">
<stop stop-color="#FFF21E"/>
<stop offset="1" stop-color="#FF9C00"/>
</linearGradient>
<linearGradient id="paint23_linear_93_89" x1="2809.21" y1="504.686" x2="2800.11" y2="327.172" gradientUnits="userSpaceOnUse">
<stop stop-color="#FFF21E"/>
<stop offset="1" stop-color="#FF9C00"/>
</linearGradient>
<linearGradient id="paint24_linear_93_89" x1="2809.21" y1="504.686" x2="2800.11" y2="327.172" gradientUnits="userSpaceOnUse">
<stop stop-color="#FFF21E"/>
<stop offset="1" stop-color="#FF9C00"/>
</linearGradient>
<linearGradient id="paint25_linear_93_89" x1="2809.21" y1="504.686" x2="2800.11" y2="327.172" gradientUnits="userSpaceOnUse">
<stop stop-color="#FFF21E"/>
<stop offset="1" stop-color="#FF9C00"/>
</linearGradient>
<linearGradient id="paint26_linear_93_89" x1="2809.21" y1="504.686" x2="2800.11" y2="327.172" gradientUnits="userSpaceOnUse">
<stop stop-color="#FFF21E"/>
<stop offset="1" stop-color="#FF9C00"/>
</linearGradient>
<linearGradient id="paint27_linear_93_89" x1="2809.21" y1="504.686" x2="2800.11" y2="327.172" gradientUnits="userSpaceOnUse">
<stop stop-color="#FFF21E"/>
<stop offset="1" stop-color="#FF9C00"/>
</linearGradient>
<linearGradient id="paint28_linear_93_89" x1="2809.21" y1="504.686" x2="2800.11" y2="327.172" gradientUnits="userSpaceOnUse">
<stop stop-color="#FFF21E"/>
<stop offset="1" stop-color="#FF9C00"/>
</linearGradient>
<linearGradient id="paint29_linear_93_89" x1="2809.21" y1="504.686" x2="2800.11" y2="327.172" gradientUnits="userSpaceOnUse">
<stop stop-color="#FFF21E"/>
<stop offset="1" stop-color="#FF9C00"/>
</linearGradient>
<linearGradient id="paint30_linear_93_89" x1="2809.21" y1="504.686" x2="2800.11" y2="327.172" gradientUnits="userSpaceOnUse">
<stop stop-color="#FFF21E"/>
<stop offset="1" stop-color="#FF9C00"/>
</linearGradient>
<linearGradient id="paint31_linear_93_89" x1="2809.21" y1="504.686" x2="2800.11" y2="327.172" gradientUnits="userSpaceOnUse">
<stop stop-color="#FFF21E"/>
<stop offset="1" stop-color="#FF9C00"/>
</linearGradient>
<linearGradient id="paint32_linear_93_89" x1="2809.21" y1="504.686" x2="2800.11" y2="327.172" gradientUnits="userSpaceOnUse">
<stop stop-color="#FFF21E"/>
<stop offset="1" stop-color="#FF9C00"/>
</linearGradient>
<linearGradient id="paint33_linear_93_89" x1="2809.21" y1="504.686" x2="2800.11" y2="327.172" gradientUnits="userSpaceOnUse">
<stop stop-color="#FFF21E"/>
<stop offset="1" stop-color="#FF9C00"/>
</linearGradient>
<linearGradient id="paint34_linear_93_89" x1="2809.21" y1="504.686" x2="2800.11" y2="327.172" gradientUnits="userSpaceOnUse">
<stop stop-color="#FFF21E"/>
<stop offset="1" stop-color="#FF9C00"/>
</linearGradient>
<linearGradient id="paint35_linear_93_89" x1="2809.21" y1="504.686" x2="2800.11" y2="327.172" gradientUnits="userSpaceOnUse">
<stop stop-color="#FFF21E"/>
<stop offset="1" stop-color="#FF9C00"/>
</linearGradient>
<linearGradient id="paint36_linear_93_89" x1="2809.21" y1="504.686" x2="2800.11" y2="327.172" gradientUnits="userSpaceOnUse">
<stop stop-color="#FFF21E"/>
<stop offset="1" stop-color="#FF9C00"/>
</linearGradient>
<linearGradient id="paint37_linear_93_89" x1="2809.21" y1="504.686" x2="2800.11" y2="327.172" gradientUnits="userSpaceOnUse">
<stop stop-color="#FFF21E"/>
<stop offset="1" stop-color="#FF9C00"/>
</linearGradient>
<linearGradient id="paint38_linear_93_89" x1="2809.21" y1="504.686" x2="2800.11" y2="327.172" gradientUnits="userSpaceOnUse">
<stop stop-color="#FFF21E"/>
<stop offset="1" stop-color="#FF9C00"/>
</linearGradient>
<linearGradient id="paint39_linear_93_89" x1="2809.21" y1="504.686" x2="2800.11" y2="327.172" gradientUnits="userSpaceOnUse">
<stop stop-color="#FFF21E"/>
<stop offset="1" stop-color="#FF9C00"/>
</linearGradient>
</defs>
</svg>
