<svg width="690" height="629" viewBox="0 0 690 629" fill="none" xmlns="http://www.w3.org/2000/svg">
<circle cx="344.631" cy="314.838" r="308.411" fill="#152738" stroke="#3CAEE5" stroke-width="11.1474"/>
<circle cx="346.023" cy="314.374" r="226.778" stroke="#3BA4E0" stroke-width="10.4466"/>
<rect x="6.96182" y="251.204" width="676.276" height="138.414" rx="35.7646" fill="#142838" stroke="white" stroke-width="12.0764"/>
<path d="M89.5985 275.844C95.8476 275.844 101.309 277.111 105.981 279.645C110.71 282.122 114.342 285.612 116.875 290.116C119.408 294.62 120.675 299.771 120.675 305.57C120.675 311.312 119.38 316.436 116.791 320.939C114.257 325.443 110.626 328.99 105.897 331.58C101.224 334.113 95.7913 335.38 89.5985 335.38H66.0376V275.844H89.5985ZM88.3318 320.77C93.1734 320.77 96.9735 319.447 99.7322 316.801C102.491 314.155 103.87 310.412 103.87 305.57C103.87 300.672 102.491 296.9 99.7322 294.254C96.9735 291.552 93.1734 290.201 88.3318 290.201H82.5893V320.77H88.3318ZM165.8 325.668H144.688L141.479 335.38H124.083L145.786 275.844H164.871L186.489 335.38H169.009L165.8 325.668ZM161.662 313.001L155.244 293.747L148.91 313.001H161.662ZM222.032 335.38L210.209 313.424H208.436V335.38H191.884V275.844H217.978C222.764 275.844 226.817 276.689 230.139 278.378C233.46 280.011 235.966 282.291 237.655 285.218C239.343 288.089 240.188 291.326 240.188 294.93C240.188 298.983 239.062 302.558 236.81 305.654C234.614 308.695 231.377 310.862 227.099 312.157L240.526 335.38H222.032ZM208.436 302.108H216.627C218.879 302.108 220.568 301.573 221.694 300.503C222.82 299.433 223.383 297.885 223.383 295.858C223.383 293.944 222.792 292.452 221.61 291.383C220.484 290.257 218.823 289.694 216.627 289.694H208.436V302.108ZM263.929 275.844V310.383C263.929 313.592 264.661 316.07 266.125 317.815C267.645 319.56 269.925 320.433 272.965 320.433C276.005 320.433 278.285 319.56 279.805 317.815C281.381 316.013 282.17 313.536 282.17 310.383V275.844H298.721V310.383C298.721 315.844 297.567 320.517 295.259 324.402C292.951 328.23 289.798 331.129 285.801 333.1C281.86 335.014 277.469 335.971 272.627 335.971C267.785 335.971 263.45 335.014 259.622 333.1C255.85 331.129 252.866 328.23 250.671 324.402C248.531 320.573 247.462 315.901 247.462 310.383V275.844H263.929ZM324.386 322.713H342.88V335.38H307.834V275.844H324.386V322.713ZM382.031 275.844V335.38H365.48V275.844H382.031ZM444.743 275.844V335.38H428.192V311.481H408.009V335.38H391.457V275.844H408.009V298.223H428.192V275.844H444.743ZM476.678 335.971C469.754 335.971 464.067 334.338 459.62 331.073C455.172 327.751 452.78 323.022 452.442 316.886H470.091C470.26 318.969 470.88 320.489 471.949 321.446C473.019 322.403 474.398 322.882 476.087 322.882C477.607 322.882 478.846 322.516 479.803 321.784C480.816 320.996 481.323 319.926 481.323 318.575C481.323 316.83 480.507 315.478 478.874 314.521C477.241 313.564 474.595 312.495 470.936 311.312C467.051 310.018 463.899 308.779 461.478 307.597C459.113 306.358 457.03 304.585 455.229 302.277C453.483 299.912 452.611 296.844 452.611 293.072C452.611 289.243 453.568 285.978 455.482 283.276C457.396 280.517 460.042 278.434 463.42 277.027C466.798 275.619 470.626 274.916 474.905 274.916C481.83 274.916 487.347 276.548 491.457 279.813C495.623 283.022 497.846 287.555 498.128 293.41H480.141C480.084 291.608 479.521 290.257 478.452 289.356C477.438 288.455 476.115 288.005 474.483 288.005C473.244 288.005 472.231 288.371 471.443 289.103C470.654 289.835 470.26 290.876 470.26 292.227C470.26 293.353 470.683 294.338 471.527 295.183C472.428 295.971 473.526 296.675 474.82 297.294C476.115 297.857 478.029 298.589 480.563 299.49C484.335 300.785 487.431 302.079 489.852 303.374C492.329 304.613 494.44 306.386 496.186 308.695C497.987 310.946 498.888 313.818 498.888 317.308C498.888 320.855 497.987 324.036 496.186 326.851C494.44 329.666 491.879 331.889 488.501 333.522C485.179 335.155 481.238 335.971 476.678 335.971ZM544.246 325.668H523.134L519.925 335.38H502.529L524.232 275.844H543.317L564.936 335.38H547.455L544.246 325.668ZM540.108 313.001L533.69 293.747L527.357 313.001H540.108ZM625.475 335.38H608.923L586.882 302.108V335.38H570.33V275.844H586.882L608.923 309.539V275.844H625.475V335.38Z" fill="white"/>
<path d="M80.7053 355.264H76.0415C75.9793 354.676 75.8519 354.145 75.6591 353.672C75.4663 353.199 75.2114 352.794 74.8942 352.458C74.5771 352.122 74.2009 351.866 73.7656 351.691C73.3365 351.508 72.8608 351.416 72.3385 351.416C71.4119 351.416 70.6129 351.695 69.9413 352.252C69.2759 352.809 68.7629 353.615 68.4022 354.668C68.0478 355.722 67.8706 356.997 67.8706 358.493C67.8706 360.051 68.0509 361.357 68.4116 362.41C68.7785 363.456 69.2915 364.246 69.9506 364.781C70.616 365.308 71.4026 365.571 72.3105 365.571C72.8204 365.571 73.2837 365.491 73.7003 365.33C74.1232 365.17 74.4931 364.937 74.8103 364.632C75.1336 364.319 75.3979 363.941 75.6031 363.498C75.8145 363.048 75.9607 362.54 76.0415 361.975L80.7053 362.009C80.6245 363.048 80.3788 364.071 79.9684 365.078C79.5642 366.086 79.0077 367.006 78.2988 367.838C77.5899 368.663 76.7255 369.32 75.7057 369.808C74.6921 370.297 73.5293 370.541 72.2172 370.541C70.4885 370.541 68.9401 370.075 67.5721 369.144C66.2103 368.205 65.1345 366.838 64.3448 365.044C63.555 363.25 63.1602 361.066 63.1602 358.493C63.1602 355.913 63.5612 353.726 64.3634 351.931C65.1656 350.137 66.2507 348.774 67.6187 347.843C68.9868 346.911 70.5196 346.446 72.2172 346.446C73.3738 346.446 74.4434 346.644 75.4259 347.041C76.4084 347.431 77.2728 348.003 78.019 348.759C78.7652 349.507 79.3715 350.427 79.8378 351.519C80.3042 352.611 80.5934 353.859 80.7053 355.264Z" fill="white"/>
<path d="M83.3473 370.221V346.766H96.6671V351.37H87.9645V356.18H95.9862V360.795H87.9645V365.617H96.6671V370.221H83.3473Z" fill="white"/>
<path d="M115.817 346.766V370.221H111.899L104.297 356.684H104.176V370.221H99.5586V346.766H103.532L111.05 360.28H111.209V346.766H115.817Z" fill="white"/>
<path d="M118.095 351.37V346.766H134.241V351.37H128.448V370.221H123.897V351.37H118.095Z" fill="white"/>
<path d="M136.496 370.221V346.766H149.816V351.37H141.113V356.18H149.135V360.795H141.113V365.617H149.816V370.221H136.496Z" fill="white"/>
<path d="M152.707 370.221V346.766H160.598C162.028 346.766 163.263 347.083 164.301 347.717C165.346 348.343 166.151 349.244 166.717 350.42C167.283 351.588 167.566 352.974 167.566 354.577C167.566 356.203 167.277 357.585 166.698 358.723C166.12 359.852 165.299 360.715 164.236 361.311C163.173 361.899 161.913 362.193 160.458 362.193H155.468V357.726H159.6C160.297 357.726 160.878 357.615 161.344 357.394C161.817 357.165 162.175 356.821 162.417 356.363C162.66 355.898 162.781 355.302 162.781 354.577C162.781 353.852 162.66 353.252 162.417 352.779C162.175 352.298 161.817 351.939 161.344 351.702C160.872 351.458 160.29 351.336 159.6 351.336H157.324V370.221H152.707ZM163.462 359.501L168.219 370.221H163.182L158.518 359.501H163.462Z" fill="white"/>
<path d="M175.742 370.221V346.766H188.781V351.37H180.359V356.18H187.951V360.795H180.359V370.221H175.742Z" fill="white"/>
<path d="M209.137 358.493C209.137 361.074 208.732 363.261 207.924 365.056C207.116 366.85 206.021 368.213 204.641 369.144C203.266 370.075 201.724 370.541 200.014 370.541C198.298 370.541 196.753 370.072 195.378 369.133C194.004 368.193 192.913 366.831 192.104 365.044C191.302 363.25 190.901 361.066 190.901 358.493C190.901 355.913 191.302 353.726 192.104 351.931C192.913 350.137 194.004 348.774 195.378 347.843C196.753 346.911 198.298 346.446 200.014 346.446C201.724 346.446 203.266 346.911 204.641 347.843C206.021 348.774 207.116 350.137 207.924 351.931C208.732 353.726 209.137 355.913 209.137 358.493ZM204.417 358.493C204.417 356.967 204.24 355.676 203.885 354.623C203.537 353.569 203.033 352.771 202.374 352.229C201.721 351.687 200.934 351.416 200.014 351.416C199.1 351.416 198.313 351.687 197.654 352.229C196.995 352.771 196.488 353.569 196.134 354.623C195.786 355.676 195.612 356.967 195.612 358.493C195.612 360.02 195.786 361.311 196.134 362.364C196.488 363.418 196.995 364.216 197.654 364.758C198.313 365.3 199.1 365.571 200.014 365.571C200.934 365.571 201.721 365.3 202.374 364.758C203.033 364.216 203.537 363.418 203.885 362.364C204.24 361.311 204.417 360.02 204.417 358.493Z" fill="white"/>
<path d="M211.832 370.221V346.766H219.723C221.154 346.766 222.388 347.083 223.426 347.717C224.471 348.343 225.276 349.244 225.842 350.42C226.408 351.588 226.691 352.974 226.691 354.577C226.691 356.203 226.402 357.585 225.824 358.723C225.245 359.852 224.424 360.715 223.361 361.311C222.298 361.899 221.038 362.193 219.583 362.193H214.593V357.726H218.725C219.422 357.726 220.003 357.615 220.469 357.394C220.942 357.165 221.3 356.821 221.542 356.363C221.785 355.898 221.906 355.302 221.906 354.577C221.906 353.852 221.785 353.252 221.542 352.779C221.3 352.298 220.942 351.939 220.469 351.702C219.997 351.458 219.415 351.336 218.725 351.336H216.449V370.221H211.832ZM222.587 359.501L227.344 370.221H222.307L217.643 359.501H222.587Z" fill="white"/>
<path d="M241.928 370.221H234.867V346.766H241.918C243.865 346.766 245.54 347.236 246.946 348.175C248.357 349.106 249.446 350.45 250.21 352.206C250.975 353.955 251.358 356.047 251.358 358.482C251.358 360.925 250.975 363.025 250.21 364.781C249.452 366.537 248.367 367.884 246.955 368.823C245.544 369.755 243.868 370.221 241.928 370.221ZM239.484 365.388H241.75C242.82 365.388 243.725 365.166 244.465 364.723C245.211 364.273 245.774 363.544 246.153 362.536C246.538 361.521 246.731 360.169 246.731 358.482C246.731 356.795 246.538 355.451 246.153 354.451C245.767 353.443 245.198 352.718 244.446 352.275C243.7 351.824 242.779 351.599 241.685 351.599H239.484V365.388Z" fill="white"/>
<path d="M258.671 346.766V370.221H254.053V346.766H258.671Z" fill="white"/>
<path d="M274.105 354.428C274 353.947 273.844 353.523 273.639 353.157C273.434 352.783 273.182 352.466 272.883 352.206C272.585 351.947 272.243 351.752 271.857 351.622C271.472 351.485 271.049 351.416 270.589 351.416C269.662 351.416 268.86 351.691 268.182 352.241C267.511 352.79 266.991 353.592 266.625 354.646C266.258 355.692 266.074 356.963 266.074 358.459C266.074 359.963 266.251 361.246 266.606 362.307C266.96 363.368 267.473 364.178 268.145 364.735C268.817 365.292 269.631 365.571 270.589 365.571C271.435 365.571 272.15 365.403 272.734 365.067C273.325 364.723 273.773 364.239 274.077 363.613C274.382 362.987 274.534 362.25 274.534 361.402L275.393 361.528H270.747V357.394H278.984V360.498C278.984 362.597 278.62 364.395 277.892 365.892C277.171 367.388 276.176 368.537 274.907 369.339C273.645 370.14 272.193 370.541 270.551 370.541C268.73 370.541 267.128 370.056 265.748 369.087C264.367 368.117 263.292 366.735 262.52 364.941C261.749 363.139 261.364 361.002 261.364 358.528C261.364 356.604 261.597 354.897 262.063 353.409C262.53 351.912 263.18 350.645 264.013 349.607C264.852 348.568 265.822 347.782 266.923 347.247C268.03 346.713 269.221 346.446 270.496 346.446C271.602 346.446 272.632 346.64 273.583 347.03C274.541 347.419 275.386 347.969 276.12 348.679C276.86 349.389 277.46 350.233 277.92 351.21C278.38 352.187 278.666 353.26 278.778 354.428H274.105Z" fill="white"/>
<path d="M286.322 346.766V370.221H281.705V346.766H286.322Z" fill="white"/>
<path d="M288.596 351.37V346.766H304.742V351.37H298.949V370.221H294.397V351.37H288.596Z" fill="white"/>
<path d="M308.743 370.221H303.781L310.226 346.766H316.373L322.819 370.221H317.856L313.37 352.676H313.22L308.743 370.221ZM308.081 360.99H318.453V365.296H308.081V360.99Z" fill="white"/>
<path d="M324.875 370.221V346.766H329.492V365.617H337.439V370.221H324.875Z" fill="white"/>
<path d="M351.48 370.576C350.137 370.576 348.977 370.282 348.001 369.694C347.031 369.106 346.284 368.316 345.762 367.323C345.24 366.323 344.978 365.212 344.978 363.991C344.978 363.09 345.121 362.296 345.408 361.608C345.7 360.914 346.101 360.276 346.611 359.696C347.127 359.108 347.727 358.532 348.411 357.967L352.422 354.817C352.876 354.466 353.196 354.096 353.383 353.706C353.575 353.317 353.672 352.928 353.672 352.538C353.672 352.118 353.538 351.737 353.271 351.393C353.009 351.05 352.621 350.882 352.105 350.889C351.775 350.889 351.489 350.973 351.247 351.141C351.004 351.309 350.814 351.534 350.678 351.817C350.547 352.099 350.482 352.42 350.482 352.779C350.482 353.245 350.591 353.722 350.808 354.21C351.026 354.699 351.318 355.218 351.685 355.768C352.058 356.318 352.472 356.925 352.926 357.589L362.076 370.221H357.431L349.773 360.017C349.338 359.421 348.88 358.753 348.402 358.012C347.923 357.272 347.519 356.463 347.189 355.585C346.86 354.699 346.695 353.737 346.695 352.699C346.695 351.531 346.919 350.473 347.366 349.526C347.814 348.58 348.442 347.828 349.25 347.27C350.065 346.705 351.013 346.423 352.095 346.423C353.14 346.423 354.042 346.686 354.8 347.213C355.559 347.74 356.144 348.438 356.554 349.309C356.964 350.179 357.17 351.134 357.17 352.172C357.17 353.271 356.949 354.283 356.507 355.207C356.066 356.123 355.441 356.936 354.632 357.646L350.706 361.093C350.289 361.46 349.962 361.853 349.726 362.273C349.49 362.685 349.372 363.135 349.372 363.624C349.372 364.128 349.468 364.567 349.661 364.941C349.86 365.315 350.14 365.609 350.5 365.823C350.861 366.037 351.284 366.144 351.769 366.144C352.416 366.144 353.062 365.957 353.709 365.582C354.356 365.201 354.947 364.666 355.481 363.979C356.016 363.284 356.445 362.464 356.768 361.517C357.092 360.563 357.254 359.517 357.254 358.379H360.929C360.929 359.784 360.807 361.089 360.565 362.296C360.322 363.494 359.959 364.571 359.473 365.525C358.995 366.472 358.401 367.258 357.692 367.884C357.468 368.037 357.25 368.182 357.039 368.319C356.828 368.457 356.61 368.602 356.386 368.755C355.652 369.404 354.856 369.869 353.998 370.152C353.146 370.434 352.307 370.576 351.48 370.576Z" fill="white"/>
<path d="M373.74 346.766V370.221H369.123V346.766H373.74Z" fill="white"/>
<path d="M392.896 346.766V370.221H388.979L381.377 356.684H381.256V370.221H376.639V346.766H380.612L388.13 360.28H388.289V346.766H392.896Z" fill="white"/>
<path d="M412.058 346.766V370.221H408.14L400.538 356.684H400.417V370.221H395.8V346.766H399.773L407.291 360.28H407.45V346.766H412.058Z" fill="white"/>
<path d="M432.991 358.493C432.991 361.074 432.587 363.261 431.778 365.056C430.97 366.85 429.876 368.213 428.495 369.144C427.121 370.075 425.579 370.541 423.869 370.541C422.152 370.541 420.607 370.072 419.233 369.133C417.859 368.193 416.767 366.831 415.959 365.044C415.157 363.25 414.756 361.066 414.756 358.493C414.756 355.913 415.157 353.726 415.959 351.931C416.767 350.137 417.859 348.774 419.233 347.843C420.607 346.911 422.152 346.446 423.869 346.446C425.579 346.446 427.121 346.911 428.495 347.843C429.876 348.774 430.97 350.137 431.778 351.931C432.587 353.726 432.991 355.913 432.991 358.493ZM428.271 358.493C428.271 356.967 428.094 355.676 427.74 354.623C427.391 353.569 426.888 352.771 426.229 352.229C425.576 351.687 424.789 351.416 423.869 351.416C422.955 351.416 422.168 351.687 421.509 352.229C420.85 352.771 420.343 353.569 419.988 354.623C419.64 355.676 419.466 356.967 419.466 358.493C419.466 360.02 419.64 361.311 419.988 362.364C420.343 363.418 420.85 364.216 421.509 364.758C422.168 365.3 422.955 365.571 423.869 365.571C424.789 365.571 425.576 365.3 426.229 364.758C426.888 364.216 427.391 363.418 427.74 362.364C428.094 361.311 428.271 360.02 428.271 358.493Z" fill="white"/>
<path d="M438.895 346.766L443.167 363.945H443.326L447.598 346.766H452.765L446.32 370.221H440.173L433.728 346.766H438.895Z" fill="white"/>
<path d="M456.107 370.221H451.145L457.59 346.766H463.737L470.182 370.221H465.22L460.734 352.676H460.584L456.107 370.221ZM455.445 360.99H465.817V365.296H455.445V360.99Z" fill="white"/>
<path d="M469.229 351.37V346.766H485.375V351.37H479.582V370.221H475.03V351.37H469.229Z" fill="white"/>
<path d="M492.247 346.766V370.221H487.63V346.766H492.247Z" fill="white"/>
<path d="M513.175 358.493C513.175 361.074 512.771 363.261 511.963 365.056C511.154 366.85 510.06 368.213 508.679 369.144C507.305 370.075 505.763 370.541 504.053 370.541C502.337 370.541 500.791 370.072 499.417 369.133C498.043 368.193 496.952 366.831 496.143 365.044C495.341 363.25 494.94 361.066 494.94 358.493C494.94 355.913 495.341 353.726 496.143 351.931C496.952 350.137 498.043 348.774 499.417 347.843C500.791 346.911 502.337 346.446 504.053 346.446C505.763 346.446 507.305 346.911 508.679 347.843C510.06 348.774 511.154 350.137 511.963 351.931C512.771 353.726 513.175 355.913 513.175 358.493ZM508.456 358.493C508.456 356.967 508.278 355.676 507.924 354.623C507.576 353.569 507.072 352.771 506.413 352.229C505.76 351.687 504.973 351.416 504.053 351.416C503.139 351.416 502.352 351.687 501.693 352.229C501.034 352.771 500.527 353.569 500.173 354.623C499.825 355.676 499.65 356.967 499.65 358.493C499.65 360.02 499.825 361.311 500.173 362.364C500.527 363.418 501.034 364.216 501.693 364.758C502.352 365.3 503.139 365.571 504.053 365.571C504.973 365.571 505.76 365.3 506.413 364.758C507.072 364.216 507.576 363.418 507.924 362.364C508.278 361.311 508.456 360.02 508.456 358.493Z" fill="white"/>
<path d="M532.129 346.766V370.221H528.211L520.609 356.684H520.488V370.221H515.871V346.766H519.845L527.363 360.28H527.521V346.766H532.129Z" fill="white"/>
<path d="M551.001 353.798C550.939 352.958 550.662 352.305 550.171 351.84C549.686 351.366 548.992 351.13 548.091 351.13C547.494 351.13 546.996 351.225 546.598 351.416C546.2 351.607 545.902 351.87 545.703 352.206C545.504 352.535 545.401 352.912 545.395 353.34C545.383 353.691 545.439 354 545.563 354.268C545.694 354.535 545.88 354.772 546.123 354.978C546.371 355.176 546.67 355.352 547.018 355.504C547.366 355.657 547.758 355.791 548.193 355.905L549.835 356.363C550.78 356.615 551.613 356.951 552.335 357.371C553.062 357.791 553.672 358.291 554.163 358.871C554.66 359.452 555.037 360.12 555.292 360.876C555.547 361.631 555.677 362.479 555.683 363.418C555.677 364.899 555.372 366.17 554.769 367.232C554.166 368.293 553.299 369.106 552.167 369.671C551.041 370.236 549.683 370.518 548.091 370.518C546.493 370.518 545.1 370.224 543.912 369.636C542.724 369.049 541.801 368.155 541.142 366.957C540.483 365.758 540.144 364.242 540.125 362.41H544.546C544.584 363.166 544.748 363.796 545.041 364.3C545.333 364.804 545.734 365.185 546.244 365.445C546.76 365.705 547.357 365.834 548.035 365.834C548.657 365.834 549.185 365.731 549.621 365.525C550.062 365.319 550.401 365.033 550.637 364.666C550.873 364.3 550.995 363.88 551.001 363.406C550.995 362.964 550.883 362.586 550.665 362.273C550.448 361.952 550.112 361.677 549.658 361.448C549.21 361.211 548.638 360.994 547.942 360.795L545.945 360.223C544.291 359.757 542.989 359.005 542.037 357.967C541.086 356.921 540.613 355.508 540.619 353.729C540.613 352.279 540.93 351.008 541.571 349.916C542.211 348.824 543.097 347.973 544.229 347.362C545.361 346.751 546.651 346.446 548.1 346.446C549.58 346.446 550.864 346.755 551.952 347.373C553.047 347.984 553.896 348.843 554.499 349.95C555.102 351.057 555.41 352.34 555.422 353.798H551.001Z" fill="white"/>
<path d="M558.015 370.221V346.766H562.632V356.684H562.884L569.199 346.766H574.637L567.865 357.234L574.758 370.221H569.236L564.479 361.002L562.632 363.865V370.221H558.015Z" fill="white"/>
<path d="M581.075 346.766V370.221H576.458V346.766H581.075Z" fill="white"/>
<path d="M583.974 370.221V346.766H588.591V365.617H596.538V370.221H583.974Z" fill="white"/>
<path d="M598.928 370.221V346.766H603.545V365.617H611.493V370.221H598.928Z" fill="white"/>
<path d="M624.208 353.798C624.146 352.958 623.869 352.305 623.378 351.84C622.893 351.366 622.2 351.13 621.298 351.13C620.701 351.13 620.204 351.225 619.806 351.416C619.408 351.607 619.109 351.87 618.91 352.206C618.711 352.535 618.609 352.912 618.602 353.34C618.59 353.691 618.646 354 618.77 354.268C618.901 354.535 619.088 354.772 619.33 354.978C619.579 355.176 619.877 355.352 620.226 355.504C620.574 355.657 620.965 355.791 621.401 355.905L623.042 356.363C623.988 356.615 624.821 356.951 625.542 357.371C626.27 357.791 626.879 358.291 627.37 358.871C627.868 359.452 628.244 360.12 628.499 360.876C628.754 361.631 628.885 362.479 628.891 363.418C628.885 364.899 628.58 366.17 627.977 367.232C627.373 368.293 626.506 369.106 625.374 369.671C624.249 370.236 622.89 370.518 621.298 370.518C619.7 370.518 618.307 370.224 617.119 369.636C615.932 369.049 615.008 368.155 614.349 366.957C613.69 365.758 613.351 364.242 613.332 362.41H617.754C617.791 363.166 617.956 363.796 618.248 364.3C618.54 364.804 618.941 365.185 619.451 365.445C619.967 365.705 620.564 365.834 621.242 365.834C621.864 365.834 622.393 365.731 622.828 365.525C623.269 365.319 623.608 365.033 623.845 364.666C624.081 364.3 624.202 363.88 624.208 363.406C624.202 362.964 624.09 362.586 623.873 362.273C623.655 361.952 623.319 361.677 622.865 361.448C622.417 361.211 621.845 360.994 621.149 360.795L619.153 360.223C617.499 359.757 616.196 359.005 615.245 357.967C614.293 356.921 613.821 355.508 613.827 353.729C613.821 352.279 614.138 351.008 614.778 349.916C615.419 348.824 616.305 347.973 617.437 347.362C618.568 346.751 619.859 346.446 621.308 346.446C622.787 346.446 624.072 346.755 625.16 347.373C626.254 347.984 627.103 348.843 627.706 349.95C628.309 351.057 628.617 352.34 628.63 353.798H624.208Z" fill="white"/>
<circle cx="93.3511" cy="430.492" r="10.6829" stroke="#FACA3F" stroke-width="9.2895"/>
<circle cx="596.843" cy="430.492" r="10.6829" stroke="#FACA3F" stroke-width="9.2895"/>
<circle cx="93.3511" cy="210.331" r="10.6829" stroke="#FACA3F" stroke-width="9.2895"/>
<circle cx="596.843" cy="210.331" r="10.6829" stroke="#FACA3F" stroke-width="9.2895"/>
<path d="M129.471 183.874L123.561 193.254L95.8826 175.813L101.912 166.245C103.643 163.497 105.685 161.485 108.036 160.21C110.385 158.921 112.925 158.394 115.659 158.631C118.392 158.868 121.196 159.892 124.07 161.703C126.953 163.52 129.093 165.617 130.49 167.995C131.892 170.364 132.514 172.902 132.357 175.61C132.204 178.308 131.243 181.063 129.471 183.874ZM122.382 185.506L124.98 181.384C126.195 179.456 126.857 177.626 126.966 175.895C127.066 174.158 126.617 172.522 125.621 170.988C124.615 169.448 123.053 168.011 120.936 166.677C118.819 165.342 116.857 164.56 115.052 164.329C113.238 164.092 111.583 164.39 110.089 165.223C108.591 166.042 107.252 167.388 106.071 169.262L103.38 173.533L122.382 185.506Z" fill="white"/>
<path d="M145.731 160.337L141.65 165.17L124.086 135.263L128.806 129.673L161.243 141.969L157.161 146.802L131.654 136.699L131.489 136.894L145.731 160.337ZM136.065 151.902L147.196 138.721L150.833 141.793L139.702 154.974L136.065 151.902Z" fill="white"/>
<path d="M166.475 136.858L144.498 112.624L153.586 104.382C155.448 102.694 157.303 101.601 159.152 101.103C161.009 100.598 162.79 100.636 164.496 101.217C166.202 101.783 167.756 102.839 169.159 104.385C170.568 105.94 171.46 107.589 171.835 109.334C172.21 111.064 172.041 112.82 171.328 114.602C170.608 116.376 169.318 118.107 167.456 119.796L160.983 125.665L157.678 122.021L163.559 116.688C164.648 115.7 165.403 114.742 165.826 113.813C166.241 112.875 166.349 111.965 166.151 111.081C165.954 110.181 165.465 109.302 164.686 108.442C163.906 107.582 163.071 107.002 162.181 106.702C161.284 106.395 160.345 106.398 159.365 106.712C158.377 107.018 157.335 107.668 156.238 108.662L152.215 112.311L170.865 132.877L166.475 136.858ZM169.037 114.524L184.994 120.064L180.095 124.507L164.244 118.87L169.037 114.524Z" fill="white"/>
<path d="M189.225 76.8289L194.108 73.4706L206.219 91.0815C207.547 93.0119 208.259 95.0236 208.354 97.1166C208.458 99.2035 207.973 101.224 206.899 103.177C205.82 105.121 204.183 106.848 201.989 108.357C199.787 109.871 197.585 110.785 195.382 111.097C193.174 111.401 191.114 111.131 189.203 110.287C187.291 109.443 185.672 108.056 184.344 106.126L172.233 88.5148L177.116 85.1566L188.947 102.359C189.719 103.483 190.653 104.314 191.748 104.853C192.851 105.387 194.027 105.593 195.275 105.472C196.516 105.341 197.756 104.851 198.993 104C200.23 103.149 201.132 102.167 201.698 101.054C202.266 99.9266 202.495 98.755 202.383 97.5396C202.27 96.3242 201.828 95.1549 201.056 94.0317L189.225 76.8289Z" fill="white"/>
<path d="M221.042 95.6407L206.062 66.5564L211.331 63.8428L224.036 88.5105L236.845 81.913L239.12 86.3296L221.042 95.6407Z" fill="white"/>
<path d="M255.156 45.0108L265.848 75.9297L260.247 77.8665L249.555 46.9477L255.156 45.0108Z" fill="white"/>
<path d="M274.781 72.77L267.268 40.929L273.036 39.5681L276.216 53.0476L290.971 49.5664L287.79 36.0869L293.574 34.7222L301.087 66.5632L295.303 67.9278L292.112 54.4016L277.357 57.8829L280.549 71.4091L274.781 72.77Z" fill="white"/>
<path d="M325.522 39.8397C325.238 38.4657 324.507 37.4458 323.329 36.78C322.162 36.1131 320.703 35.8653 318.955 36.0364C317.725 36.1568 316.689 36.4455 315.845 36.9025C315.002 37.3596 314.378 37.9289 313.974 38.6105C313.57 39.292 313.403 40.0414 313.472 40.8586C313.538 41.5369 313.749 42.1101 314.106 42.5781C314.472 43.0452 314.943 43.4271 315.518 43.724C316.092 44.0102 316.718 44.2378 317.398 44.4066C318.078 44.5755 318.76 44.7068 319.443 44.8004L322.57 45.2648C323.828 45.4306 325.047 45.7018 326.229 46.0783C327.422 46.4539 328.505 46.9685 329.478 47.6222C330.462 48.2749 331.271 49.1 331.903 50.0974C332.536 51.0949 332.921 52.2984 333.059 53.708C333.246 55.6158 332.923 57.3435 332.09 58.8909C331.256 60.4278 329.957 61.6946 328.192 62.6912C326.437 63.6761 324.256 64.2962 321.649 64.5514C319.116 64.7993 316.878 64.6224 314.936 64.0207C313.005 63.4179 311.441 62.4153 310.244 61.013C309.058 59.6096 308.317 57.831 308.02 55.6771L313.823 55.1092C314.019 56.235 314.461 57.144 315.149 57.8364C315.838 58.5287 316.693 59.0121 317.715 59.2866C318.748 59.5601 319.879 59.6366 321.108 59.5163C322.391 59.3908 323.495 59.0901 324.423 58.6141C325.359 58.1265 326.07 57.5113 326.553 56.7684C327.036 56.015 327.237 55.1714 327.156 54.2376C327.063 53.3907 326.745 52.7156 326.204 52.2122C325.661 51.6982 324.932 51.2987 324.016 51.0138C323.109 50.7173 322.059 50.4778 320.864 50.2951L317.066 49.7038C314.317 49.2773 312.095 48.4408 310.4 47.1942C308.715 45.936 307.758 44.141 307.53 41.8093C307.342 39.8909 307.697 38.1601 308.595 36.617C309.503 35.0729 310.819 33.8152 312.543 32.8439C314.266 31.8621 316.267 31.2596 318.546 31.0366C320.856 30.8105 322.92 31.0151 324.737 31.6505C326.564 32.2742 328.044 33.2475 329.18 34.5702C330.314 35.8824 330.987 37.4537 331.198 39.2842L325.522 39.8397Z" fill="white"/>
<path d="M346.594 62.6674L340.273 62.4437L352.94 30.1562L360.251 30.4148L370.621 63.5175L364.299 63.2938L356.486 36.995L356.23 36.986L346.594 62.6674ZM347.255 49.8554L364.497 50.4654L364.329 55.2228L347.087 54.6128L347.255 49.8554Z" fill="white"/>
<path d="M410.047 36.8658L404.331 69.0779L399.141 68.1569L387.856 43.5224L387.589 43.475L383.695 65.4163L377.86 64.3809L383.576 32.1688L388.798 33.0954L400.064 57.7428L400.347 57.7931L404.243 35.836L410.047 36.8658Z" fill="white"/>
<path d="M461.033 65.4703L455.47 63.2922C455.669 62.3178 455.692 61.395 455.542 60.524C455.395 59.6431 455.101 58.8305 454.661 58.0862C454.22 57.3418 453.642 56.6866 452.926 56.1203C452.223 55.548 451.406 55.0793 450.474 54.7144C448.818 54.066 447.187 53.9079 445.582 54.24C443.98 54.5623 442.505 55.38 441.156 56.6931C439.811 57.9963 438.69 59.7933 437.793 62.084C436.881 64.4144 436.474 66.5196 436.573 68.3996C436.685 70.2736 437.217 71.8656 438.168 73.1757C439.133 74.4798 440.438 75.4541 442.085 76.0986C442.997 76.4558 443.896 76.6707 444.783 76.7433C445.683 76.8098 446.544 76.7294 447.365 76.5018C448.196 76.2782 448.965 75.9047 449.673 75.3814C450.391 74.8619 451.009 74.189 451.527 73.3625L457.079 75.5703C456.304 76.9366 455.321 78.1185 454.13 79.1161C452.948 80.1175 451.612 80.8867 450.121 81.4237C448.634 81.9507 447.04 82.1958 445.339 82.1588C443.641 82.112 441.886 81.7333 440.071 81.0228C437.393 79.9745 435.246 78.419 433.629 76.3564C432.012 74.2937 431.057 71.8554 430.763 69.0414C430.47 66.2275 430.964 63.1842 432.245 59.9118C433.53 56.6294 435.239 54.0618 437.371 52.2089C439.507 50.3462 441.868 49.2066 444.456 48.7901C447.044 48.3736 449.666 48.6856 452.324 49.7261C454.02 50.39 455.503 51.2453 456.775 52.292C458.046 53.3388 459.071 54.5465 459.851 55.9152C460.634 57.274 461.132 58.7615 461.346 60.3776C461.573 61.9877 461.469 63.6853 461.033 65.4703Z" fill="white"/>
<path d="M460.452 89.3525L476.241 60.6997L494.877 70.969L492.479 75.3201L479.034 67.9111L474.747 75.6899L487.227 82.5669L484.829 86.918L472.35 80.041L468.04 87.8617L481.597 95.3324L479.199 99.6835L460.452 89.3525Z" fill="white"/>
<path d="M527.988 93.9892L508.604 120.344L504.358 117.221L505.143 90.1357L504.924 89.9748L491.721 107.926L486.947 104.415L506.33 78.0603L510.602 81.2025L509.795 108.291L510.027 108.461L523.239 90.4967L527.988 93.9892Z" fill="white"/>
<path d="M533.89 105.472L537.343 101.9L556.113 120.038L552.66 123.611L545.389 116.584L526.107 136.537L521.88 132.452L541.162 112.499L533.89 105.472Z" fill="white"/>
<path d="M538.515 149.383L563.967 128.829L577.336 145.382L573.47 148.504L563.826 136.56L556.916 142.141L565.868 153.226L562.003 156.348L553.051 145.262L546.104 150.872L555.829 162.915L551.964 166.036L538.515 149.383Z" fill="white"/>
<path d="M557.286 173.427L585.07 156.155L591.547 166.575C592.874 168.709 593.616 170.731 593.774 172.639C593.938 174.556 593.581 176.301 592.703 177.875C591.84 179.452 590.523 180.792 588.75 181.894C586.968 183.001 585.185 183.583 583.402 183.638C581.633 183.697 579.935 183.216 578.31 182.195C576.694 181.168 575.222 179.588 573.895 177.453L569.282 170.032L573.461 167.435L577.652 174.178C578.428 175.426 579.235 176.341 580.074 176.923C580.921 177.5 581.798 177.77 582.703 177.734C583.623 177.701 584.576 177.378 585.562 176.765C586.548 176.153 587.268 175.435 587.723 174.614C588.187 173.786 588.352 172.862 588.219 171.841C588.095 170.815 587.642 169.673 586.861 168.416L583.993 163.803L560.414 178.46L557.286 173.427ZM578.798 179.954L570.484 194.659L566.992 189.042L575.383 174.46L578.798 179.954Z" fill="white"/>
<path d="M121.366 476.09L117.434 470.064L135.217 458.459L139.229 464.607C140.381 466.372 141.015 468.121 141.13 469.854C141.255 471.588 140.878 473.229 139.998 474.778C139.118 476.326 137.755 477.702 135.908 478.907C134.055 480.116 132.239 480.811 130.458 480.991C128.681 481.176 127.015 480.856 125.46 480.03C123.91 479.209 122.545 477.896 121.366 476.09ZM122.324 471.466L124.052 474.115C124.86 475.354 125.76 476.24 126.752 476.773C127.75 477.302 128.836 477.481 130.011 477.308C131.192 477.132 132.462 476.6 133.823 475.712C135.183 474.824 136.176 473.879 136.801 472.877C137.432 471.871 137.704 470.814 137.618 469.707C137.54 468.602 137.109 467.447 136.323 466.243L134.532 463.499L122.324 471.466Z" fill="white"/>
<path d="M150.034 479.997L133.043 492.734L130.735 489.656L147.726 476.919L150.034 479.997Z" fill="white"/>
<path d="M157.259 499.449C157.571 498.953 157.796 498.445 157.933 497.926C158.08 497.408 158.137 496.885 158.103 496.358C158.074 495.836 157.944 495.319 157.713 494.807C157.487 494.29 157.167 493.79 156.753 493.308C156.009 492.443 155.129 491.859 154.113 491.557C153.097 491.255 152 491.272 150.822 491.61C149.655 491.948 148.468 492.635 147.262 493.671C146.046 494.717 145.181 495.793 144.665 496.901C144.15 498.01 143.966 499.094 144.111 500.154C144.262 501.209 144.724 502.188 145.499 503.089C146.202 503.907 146.968 504.48 147.796 504.807C148.629 505.139 149.473 505.22 150.329 505.05C151.19 504.875 152.011 504.451 152.792 503.78L153.258 504.528L149.5 500.156L151.781 498.196L157.397 504.731L155.462 506.393C154.084 507.578 152.639 508.31 151.128 508.588C149.617 508.866 148.147 508.725 146.719 508.166C145.295 507.603 144.012 506.656 142.867 505.324C141.592 503.841 140.805 502.252 140.507 500.558C140.218 498.864 140.42 497.174 141.111 495.486C141.812 493.799 143.012 492.225 144.71 490.765C146.01 489.648 147.329 488.833 148.667 488.322C150.009 487.815 151.322 487.589 152.608 487.642C153.898 487.69 155.114 488.003 156.257 488.579C157.405 489.151 158.432 489.964 159.337 491.018C160.103 491.909 160.686 492.853 161.087 493.848C161.492 494.84 161.713 495.839 161.75 496.847C161.791 497.86 161.651 498.842 161.329 499.793C161.007 500.744 160.502 501.62 159.814 502.421L157.259 499.449Z" fill="white"/>
<path d="M171.175 504.229L156.029 519.113L153.333 516.369L168.479 501.486L171.175 504.229Z" fill="white"/>
<path d="M172.07 509.827L174.227 507.431L186.818 518.767L184.661 521.163L179.783 516.772L167.732 530.157L164.897 527.603L176.947 514.219L172.07 509.827Z" fill="white"/>
<path d="M179.17 539.818L175.893 537.345L194.651 524.898L198.442 527.758L191.627 549.218L188.349 546.744L193.989 529.854L193.857 529.754L179.17 539.818ZM184.293 533.253L193.232 539.998L191.371 542.465L182.432 535.72L184.293 533.253Z" fill="white"/>
<path d="M196.153 552.184L207.516 534.245L210.766 536.303L201.128 551.518L209.029 556.523L207.303 559.247L196.153 552.184Z" fill="white"/>
<path d="M223.363 568.071L219.66 566.299L235.57 550.372L239.853 552.422L237.439 574.808L233.736 573.035L235.907 555.361L235.757 555.289L223.363 568.071ZM227.079 560.619L237.18 565.453L235.846 568.241L225.745 563.406L227.079 560.619Z" fill="white"/>
<path d="M266.216 563.049L258.834 582.959L255.626 581.77L251.273 564.729L251.107 564.668L246.079 578.23L242.472 576.893L249.854 556.982L253.082 558.179L257.422 575.226L257.597 575.29L262.629 561.719L266.216 563.049Z" fill="white"/>
<path d="M272.197 586.885L265.25 585.009L270.786 564.509L277.873 566.422C279.908 566.972 281.546 567.855 282.786 569.07C284.034 570.281 284.846 571.756 285.22 573.497C285.595 575.238 285.495 577.173 284.92 579.302C284.344 581.437 283.451 583.165 282.242 584.486C281.041 585.808 279.585 586.679 277.875 587.098C276.172 587.518 274.279 587.448 272.197 586.885ZM269.831 582.799L272.884 583.623C274.313 584.009 275.574 584.07 276.669 583.808C277.766 583.538 278.695 582.948 279.456 582.036C280.22 581.118 280.813 579.875 281.237 578.307C281.66 576.739 281.771 575.373 281.57 574.209C281.371 573.038 280.87 572.068 280.068 571.3C279.274 570.528 278.183 569.954 276.795 569.579L273.632 568.725L269.831 582.799Z" fill="white"/>
<path d="M304.857 572.228L301.43 593.185L297.634 592.564L301.061 571.607L304.857 572.228Z" fill="white"/>
<path d="M327.414 574.811L325.374 595.948L321.968 595.62L313.398 580.261L313.223 580.244L311.833 594.641L308.004 594.272L310.044 573.135L313.471 573.466L322.03 588.834L322.215 588.852L323.606 574.444L327.414 574.811Z" fill="white"/>
<path d="M349.642 575.13L349.555 596.365L346.133 596.351L336.187 581.846L336.011 581.845L335.951 596.309L332.105 596.294L332.192 575.059L335.634 575.073L345.57 589.588L345.757 589.589L345.816 575.115L349.642 575.13Z" fill="white"/>
<path d="M374.247 583.832C374.451 586.111 374.2 588.101 373.492 589.803C372.791 591.497 371.745 592.84 370.356 593.832C368.974 594.824 367.357 595.403 365.505 595.569C363.653 595.735 361.955 595.454 360.411 594.725C358.874 593.989 357.606 592.85 356.607 591.309C355.614 589.76 355.015 587.85 354.811 585.578C354.607 583.299 354.855 581.313 355.556 579.619C356.264 577.917 357.309 576.571 358.691 575.579C360.081 574.587 361.701 574.007 363.553 573.841C365.405 573.675 367.1 573.956 368.636 574.686C370.18 575.415 371.448 576.553 372.441 578.102C373.44 579.643 374.042 581.553 374.247 583.832ZM370.395 584.178C370.251 582.574 369.878 581.244 369.276 580.187C368.681 579.123 367.917 578.349 366.986 577.863C366.053 577.371 365.012 577.177 363.862 577.28C362.712 577.383 361.722 577.76 360.893 578.411C360.062 579.054 359.445 579.953 359.042 581.107C358.645 582.253 358.519 583.628 358.663 585.232C358.807 586.836 359.177 588.17 359.772 589.234C360.374 590.29 361.141 591.065 362.073 591.557C363.005 592.042 364.046 592.233 365.196 592.13C366.346 592.027 367.336 591.653 368.166 591.01C368.996 590.359 369.61 589.461 370.006 588.315C370.409 587.161 370.539 585.782 370.395 584.178Z" fill="white"/>
<path d="M380.112 572.138L388.58 587.572L388.794 587.532L391.186 570.094L395.346 569.327L391.838 591.568L387.168 592.429L375.962 572.904L380.112 572.138Z" fill="white"/>
<path d="M407.114 588.196L403.16 589.303L404.634 566.839L409.207 565.559L422.141 583.989L418.187 585.096L408.174 570.37L408.014 570.415L407.114 588.196ZM404.999 580.142L415.782 577.123L416.616 580.098L405.832 583.118L404.999 580.142Z" fill="white"/>
<path d="M420.059 565.683L418.924 562.664L434.783 556.703L435.918 559.721L429.774 562.031L436.111 578.889L432.539 580.232L426.203 563.373L420.059 565.683Z" fill="white"/>
<path d="M442.209 553.314L450.881 572.698L447.37 574.269L438.698 554.885L442.209 553.314Z" fill="white"/>
<path d="M468.757 551.72C469.83 553.74 470.37 555.672 470.379 557.515C470.389 559.348 469.947 560.992 469.052 562.446C468.163 563.896 466.898 565.057 465.255 565.929C463.613 566.801 461.939 567.201 460.234 567.129C458.531 567.047 456.92 566.489 455.401 565.457C453.885 564.415 452.592 562.886 451.522 560.872C450.449 558.851 449.907 556.924 449.896 555.09C449.888 553.248 450.329 551.601 451.218 550.151C452.113 548.697 453.381 547.534 455.024 546.662C456.666 545.79 458.337 545.392 460.036 545.467C461.742 545.54 463.353 546.097 464.869 547.139C466.388 548.172 467.684 549.699 468.757 551.72ZM465.341 553.533C464.586 552.111 463.726 551.03 462.761 550.29C461.8 549.54 460.795 549.122 459.748 549.037C458.698 548.945 457.663 549.17 456.643 549.711C455.623 550.253 454.858 550.984 454.345 551.906C453.83 552.822 453.61 553.889 453.686 555.109C453.765 556.319 454.183 557.635 454.938 559.058C455.693 560.48 456.552 561.566 457.513 562.316C458.478 563.056 459.485 563.472 460.536 563.564C461.583 563.649 462.616 563.421 463.636 562.88C464.656 562.338 465.423 561.61 465.939 560.694C466.451 559.773 466.668 558.707 466.589 557.496C466.512 556.277 466.096 554.956 465.341 553.533Z" fill="white"/>
<path d="M481.824 530.647L493.494 548.387L490.636 550.268L474.327 543.683L474.18 543.779L482.129 555.864L478.915 557.978L467.245 540.237L470.121 538.345L486.426 544.945L486.582 544.842L478.627 532.749L481.824 530.647Z" fill="white"/>
<path d="M505.302 519.339C504.641 518.712 503.873 518.44 502.999 518.522C502.129 518.6 501.261 519.009 500.393 519.749C499.782 520.269 499.337 520.807 499.058 521.363C498.778 521.919 498.657 522.454 498.694 522.967C498.732 523.48 498.92 523.941 499.26 524.351C499.547 524.687 499.872 524.914 500.236 525.032C500.604 525.145 500.997 525.173 501.413 525.118C501.825 525.058 502.243 524.947 502.668 524.785C503.093 524.622 503.504 524.44 503.903 524.236L505.741 523.324C506.473 522.946 507.223 522.638 507.992 522.4C508.767 522.158 509.534 522.03 510.295 522.018C511.062 522 511.798 522.14 512.505 522.437C513.212 522.734 513.864 523.232 514.46 523.932C515.267 524.879 515.736 525.919 515.866 527.052C515.991 528.18 515.769 529.337 515.199 530.522C514.629 531.697 513.697 532.836 512.403 533.939C511.146 535.011 509.888 535.746 508.63 536.146C507.378 536.541 506.173 536.587 505.015 536.284C503.863 535.976 502.809 535.304 501.852 534.266L504.733 531.812C505.254 532.339 505.827 532.659 506.45 532.773C507.074 532.886 507.709 532.827 508.355 532.594C509.006 532.357 509.637 531.978 510.248 531.458C510.884 530.915 511.361 530.345 511.679 529.748C511.997 529.141 512.147 528.55 512.129 527.975C512.107 527.394 511.901 526.87 511.512 526.403C511.148 525.986 510.728 525.744 510.253 525.677C509.774 525.605 509.237 525.662 508.643 525.85C508.051 526.028 507.402 526.29 506.698 526.636L504.455 527.73C502.833 528.522 501.339 528.9 499.974 528.865C498.609 528.82 497.434 528.218 496.448 527.061C495.636 526.109 495.183 525.055 495.089 523.9C495 522.741 495.235 521.583 495.793 520.426C496.347 519.264 497.189 518.201 498.321 517.237C499.468 516.26 500.643 515.603 501.846 515.268C503.051 514.923 504.201 514.892 505.296 515.175C506.387 515.454 507.328 516.041 508.119 516.938L505.302 519.339Z" fill="white"/>
<path d="M522.828 524.281L507.757 509.321L510.467 506.591L517.392 513.465L517.574 513.281L516.486 500.528L519.795 497.194L520.773 509.735L534.917 512.102L531.659 515.384L520.735 513.467L521.049 517.095L525.538 521.551L522.828 524.281Z" fill="white"/>
<path d="M524.64 491.497L540.608 505.495L538.072 508.388L522.104 494.39L524.64 491.497Z" fill="white"/>
<path d="M544.933 500.471L528.202 487.395L530.571 484.364L544.761 495.454L550.52 488.086L553.061 490.071L544.933 500.471Z" fill="white"/>
<path d="M556.56 485.216L538.919 473.396L541.06 470.2L556.022 480.226L561.228 472.456L563.907 474.251L556.56 485.216Z" fill="white"/>
<path d="M559.314 451.548C558.477 451.189 557.663 451.198 556.871 451.577C556.082 451.951 555.408 452.634 554.848 453.628C554.455 454.327 554.223 454.986 554.153 455.604C554.082 456.223 554.153 456.766 554.365 457.235C554.578 457.703 554.914 458.071 555.375 458.338C555.76 458.555 556.144 458.656 556.525 458.64C556.91 458.619 557.288 458.511 557.66 458.315C558.025 458.117 558.38 457.868 558.722 457.569C559.065 457.27 559.388 456.956 559.692 456.627L561.102 455.136C561.658 454.529 562.256 453.981 562.896 453.493C563.539 452.998 564.216 452.613 564.925 452.338C565.639 452.058 566.378 451.934 567.144 451.969C567.91 452.003 568.693 452.246 569.495 452.697C570.579 453.307 571.378 454.121 571.891 455.14C572.399 456.155 572.59 457.317 572.464 458.626C572.335 459.926 571.854 461.317 571.02 462.799C570.21 464.239 569.283 465.363 568.241 466.173C567.202 466.976 566.087 467.436 564.896 467.551C563.708 467.66 562.487 467.392 561.23 466.749L563.086 463.451C563.758 463.765 564.406 463.868 565.03 463.76C565.655 463.651 566.23 463.376 566.756 462.934C567.286 462.486 567.747 461.913 568.14 461.214C568.55 460.485 568.801 459.786 568.893 459.116C568.982 458.436 568.919 457.829 568.703 457.296C568.482 456.759 568.108 456.338 567.581 456.034C567.096 455.769 566.619 455.686 566.149 455.787C565.674 455.885 565.19 456.124 564.698 456.506C564.203 456.877 563.685 457.347 563.144 457.915L561.417 459.715C560.168 461.019 558.896 461.89 557.603 462.328C556.307 462.757 554.996 462.598 553.671 461.853C552.58 461.239 551.791 460.407 551.304 459.355C550.821 458.298 550.641 457.13 550.765 455.852C550.884 454.57 551.308 453.281 552.036 451.986C552.775 450.673 553.652 449.651 554.665 448.921C555.677 448.181 556.745 447.755 557.871 447.643C558.991 447.528 560.077 447.754 561.129 448.323L559.314 451.548Z" fill="white"/>
<path d="M272.07 189.002H258.95C258.775 187.655 258.416 186.439 257.874 185.355C257.332 184.27 256.614 183.343 255.722 182.573C254.83 181.804 253.772 181.218 252.547 180.815C251.34 180.396 250.002 180.186 248.533 180.186C245.926 180.186 243.678 180.824 241.789 182.101C239.917 183.378 238.474 185.224 237.459 187.638C236.462 190.052 235.964 192.973 235.964 196.402C235.964 199.97 236.471 202.962 237.486 205.376C238.518 207.772 239.961 209.583 241.815 210.808C243.687 212.015 245.9 212.618 248.454 212.618C249.888 212.618 251.192 212.434 252.364 212.067C253.553 211.7 254.594 211.166 255.486 210.466C256.396 209.749 257.139 208.883 257.717 207.869C258.311 206.837 258.722 205.673 258.95 204.379L272.07 204.457C271.842 206.837 271.151 209.181 269.997 211.49C268.86 213.799 267.294 215.907 265.3 217.814C263.306 219.703 260.874 221.207 258.005 222.327C255.154 223.446 251.883 224.006 248.191 224.006C243.328 224.006 238.973 222.939 235.124 220.805C231.293 218.653 228.267 215.522 226.045 211.411C223.823 207.3 222.713 202.297 222.713 196.402C222.713 190.489 223.841 185.477 226.098 181.366C228.354 177.255 231.407 174.133 235.255 171.999C239.104 169.865 243.416 168.798 248.191 168.798C251.445 168.798 254.454 169.252 257.218 170.162C259.982 171.054 262.413 172.366 264.513 174.098C266.612 175.812 268.317 177.92 269.629 180.422C270.941 182.923 271.755 185.783 272.07 189.002ZM286.718 224.032C284.829 224.032 283.211 223.368 281.864 222.038C280.534 220.709 279.878 219.099 279.896 217.21C279.878 215.356 280.534 213.773 281.864 212.461C283.211 211.131 284.829 210.466 286.718 210.466C288.502 210.466 290.077 211.131 291.441 212.461C292.823 213.773 293.523 215.356 293.541 217.21C293.523 218.47 293.191 219.615 292.543 220.647C291.914 221.68 291.083 222.502 290.051 223.114C289.036 223.726 287.925 224.032 286.718 224.032ZM321.88 223.271H302.016V169.532H321.853C327.329 169.532 332.043 170.608 335.997 172.76C339.968 174.894 343.029 177.973 345.181 181.996C347.332 186.002 348.408 190.795 348.408 196.376C348.408 201.973 347.332 206.784 345.181 210.808C343.046 214.831 339.994 217.919 336.023 220.07C332.052 222.204 327.337 223.271 321.88 223.271ZM315.005 212.198H321.381C324.39 212.198 326.935 211.691 329.017 210.676C331.116 209.644 332.699 207.974 333.766 205.665C334.851 203.338 335.393 200.242 335.393 196.376C335.393 192.51 334.851 189.431 333.766 187.139C332.682 184.83 331.081 183.168 328.964 182.154C326.865 181.121 324.276 180.605 321.197 180.605H315.005V212.198ZM359.816 224.032C357.927 224.032 356.309 223.368 354.962 222.038C353.632 220.709 352.976 219.099 352.994 217.21C352.976 215.356 353.632 213.773 354.962 212.461C356.309 211.131 357.927 210.466 359.816 210.466C361.6 210.466 363.175 211.131 364.539 212.461C365.921 213.773 366.621 215.356 366.638 217.21C366.621 218.47 366.288 219.615 365.641 220.647C365.011 221.68 364.18 222.502 363.148 223.114C362.134 223.726 361.023 224.032 359.816 224.032ZM388.102 169.532V223.271H375.114V169.532H388.102ZM403.472 224.032C401.583 224.032 399.965 223.368 398.618 222.038C397.289 220.709 396.633 219.099 396.65 217.21C396.633 215.356 397.289 213.773 398.618 212.461C399.965 211.131 401.583 210.466 403.472 210.466C405.257 210.466 406.831 211.131 408.196 212.461C409.578 213.773 410.277 215.356 410.295 217.21C410.277 218.47 409.945 219.615 409.298 220.647C408.668 221.68 407.837 222.502 406.805 223.114C405.79 223.726 404.68 224.032 403.472 224.032ZM447.818 185.644C447.643 183.719 446.865 182.224 445.483 181.156C444.118 180.072 442.168 179.53 439.631 179.53C437.952 179.53 436.552 179.748 435.433 180.186C434.313 180.623 433.473 181.226 432.914 181.996C432.354 182.748 432.065 183.614 432.048 184.594C432.013 185.399 432.17 186.107 432.52 186.719C432.887 187.332 433.412 187.874 434.094 188.346C434.794 188.801 435.634 189.203 436.613 189.553C437.593 189.903 438.695 190.209 439.92 190.472L444.538 191.521C447.197 192.099 449.541 192.868 451.57 193.83C453.617 194.792 455.331 195.938 456.713 197.268C458.113 198.597 459.171 200.128 459.888 201.86C460.605 203.592 460.973 205.533 460.99 207.685C460.973 211.079 460.116 213.991 458.419 216.423C456.722 218.854 454.282 220.717 451.098 222.012C447.932 223.306 444.109 223.954 439.631 223.954C435.135 223.954 431.217 223.28 427.876 221.933C424.534 220.586 421.937 218.54 420.082 215.793C418.228 213.047 417.275 209.574 417.222 205.376H429.66C429.765 207.108 430.228 208.551 431.051 209.705C431.873 210.86 433.001 211.735 434.436 212.329C435.887 212.924 437.567 213.222 439.474 213.222C441.223 213.222 442.71 212.985 443.934 212.513C445.176 212.041 446.13 211.385 446.795 210.545C447.459 209.705 447.8 208.743 447.818 207.659C447.8 206.644 447.486 205.778 446.873 205.061C446.261 204.326 445.316 203.697 444.039 203.172C442.78 202.629 441.17 202.131 439.211 201.676L433.596 200.364C428.943 199.297 425.278 197.574 422.601 195.195C419.925 192.798 418.595 189.562 418.613 185.486C418.595 182.162 419.488 179.25 421.289 176.748C423.091 174.247 425.584 172.296 428.768 170.897C431.952 169.497 435.581 168.798 439.657 168.798C443.821 168.798 447.433 169.506 450.494 170.923C453.573 172.322 455.961 174.29 457.658 176.827C459.355 179.363 460.221 182.302 460.256 185.644H447.818Z" fill="url(#paint0_linear_94_288)"/>
<path d="M249.053 454.738V428.855H259.745C261.683 428.855 263.355 429.204 264.762 429.904C266.178 430.595 267.269 431.589 268.036 432.886C268.802 434.175 269.186 435.705 269.186 437.474C269.186 439.269 268.794 440.794 268.01 442.049C267.227 443.296 266.115 444.248 264.674 444.906C263.233 445.554 261.527 445.879 259.555 445.879H252.794V440.95H258.393C259.336 440.95 260.124 440.828 260.756 440.583C261.396 440.33 261.881 439.951 262.209 439.446C262.538 438.932 262.702 438.275 262.702 437.474C262.702 436.674 262.538 436.012 262.209 435.49C261.881 434.959 261.396 434.563 260.756 434.302C260.116 434.032 259.328 433.897 258.393 433.897H255.309V454.738H249.053ZM263.625 442.909L270.07 454.738H263.246L256.926 442.909H263.625ZM296.112 438.232H289.793C289.709 437.584 289.536 436.998 289.275 436.476C289.013 435.953 288.668 435.507 288.238 435.136C287.809 434.765 287.299 434.483 286.709 434.289C286.128 434.087 285.483 433.986 284.775 433.986C283.52 433.986 282.437 434.293 281.527 434.909C280.626 435.524 279.931 436.412 279.442 437.575C278.962 438.738 278.722 440.145 278.722 441.796C278.722 443.515 278.966 444.956 279.455 446.119C279.952 447.273 280.647 448.145 281.54 448.735C282.441 449.316 283.507 449.607 284.737 449.607C285.428 449.607 286.056 449.519 286.621 449.342C287.194 449.165 287.695 448.908 288.125 448.571C288.563 448.225 288.921 447.808 289.199 447.319C289.485 446.822 289.683 446.262 289.793 445.639L296.112 445.676C296.003 446.822 295.67 447.951 295.114 449.064C294.566 450.176 293.812 451.191 292.851 452.109C291.891 453.019 290.72 453.744 289.338 454.283C287.964 454.823 286.389 455.092 284.611 455.092C282.269 455.092 280.171 454.578 278.317 453.55C276.472 452.514 275.014 451.006 273.944 449.026C272.874 447.046 272.339 444.636 272.339 441.796C272.339 438.949 272.883 436.535 273.969 434.555C275.056 432.575 276.527 431.071 278.38 430.043C280.234 429.015 282.311 428.501 284.611 428.501C286.178 428.501 287.627 428.72 288.959 429.158C290.29 429.588 291.461 430.22 292.472 431.054C293.483 431.88 294.305 432.895 294.937 434.1C295.569 435.305 295.96 436.682 296.112 438.232ZM319.256 428.855V454.738H313.013V434.694H312.861L307.073 438.232V432.823L313.455 428.855H319.256ZM334.887 455.092C333 455.092 331.323 454.751 329.857 454.068C328.391 453.386 327.232 452.447 326.381 451.25C325.539 450.054 325.1 448.68 325.067 447.13H331.133C331.184 448.082 331.571 448.849 332.296 449.43C333.021 450.003 333.884 450.29 334.887 450.29C335.67 450.29 336.366 450.117 336.972 449.771C337.579 449.426 338.055 448.941 338.4 448.318C338.746 447.686 338.914 446.961 338.906 446.144C338.914 445.31 338.742 444.581 338.388 443.958C338.042 443.334 337.562 442.85 336.947 442.504C336.34 442.15 335.641 441.973 334.849 441.973C334.099 441.965 333.387 442.129 332.713 442.466C332.047 442.803 331.542 443.263 331.196 443.844L325.673 442.808L326.798 428.855H343.405V433.897H331.942L331.348 440.002H331.5C331.929 439.286 332.62 438.696 333.572 438.232C334.533 437.761 335.624 437.525 336.846 437.525C338.396 437.525 339.778 437.887 340.991 438.612C342.213 439.328 343.174 440.322 343.873 441.594C344.581 442.867 344.934 444.324 344.934 445.967C344.934 447.745 344.513 449.321 343.671 450.694C342.836 452.067 341.665 453.146 340.157 453.929C338.657 454.705 336.901 455.092 334.887 455.092ZM358.48 455.092C356.466 455.092 354.667 454.772 353.083 454.132C351.508 453.483 350.269 452.607 349.367 451.503C348.474 450.391 348.028 449.135 348.028 447.737C348.028 446.667 348.285 445.685 348.799 444.792C349.313 443.899 350.008 443.157 350.884 442.567C351.769 441.969 352.755 441.586 353.841 441.417V441.215C352.417 440.954 351.251 440.293 350.341 439.231C349.439 438.169 348.988 436.926 348.988 435.503C348.988 434.154 349.397 432.954 350.214 431.901C351.04 430.847 352.165 430.017 353.589 429.411C355.021 428.804 356.651 428.501 358.48 428.501C360.308 428.501 361.934 428.804 363.358 429.411C364.791 430.017 365.915 430.847 366.733 431.901C367.558 432.954 367.971 434.154 367.971 435.503C367.971 436.935 367.512 438.182 366.594 439.244C365.684 440.297 364.525 440.954 363.118 441.215V441.417C364.197 441.586 365.174 441.969 366.05 442.567C366.935 443.157 367.634 443.899 368.148 444.792C368.671 445.685 368.932 446.667 368.932 447.737C368.932 449.135 368.481 450.391 367.579 451.503C366.678 452.607 365.439 453.483 363.864 454.132C362.297 454.772 360.502 455.092 358.48 455.092ZM358.48 450.656C359.246 450.656 359.921 450.513 360.502 450.226C361.083 449.931 361.538 449.523 361.867 449C362.204 448.478 362.372 447.888 362.372 447.231C362.372 446.557 362.204 445.959 361.867 445.436C361.53 444.914 361.066 444.505 360.477 444.21C359.895 443.907 359.23 443.755 358.48 443.755C357.738 443.755 357.073 443.907 356.483 444.21C355.893 444.505 355.43 444.914 355.093 445.436C354.756 445.959 354.587 446.557 354.587 447.231C354.587 447.888 354.751 448.478 355.08 449C355.417 449.514 355.876 449.919 356.458 450.214C357.047 450.509 357.721 450.656 358.48 450.656ZM358.48 439.345C359.137 439.345 359.718 439.21 360.224 438.94C360.738 438.671 361.138 438.296 361.425 437.815C361.719 437.335 361.867 436.792 361.867 436.185C361.867 435.578 361.719 435.043 361.425 434.58C361.138 434.117 360.742 433.754 360.236 433.493C359.731 433.223 359.145 433.089 358.48 433.089C357.823 433.089 357.237 433.223 356.723 433.493C356.209 433.754 355.809 434.117 355.522 434.58C355.236 435.043 355.093 435.578 355.093 436.185C355.093 436.792 355.236 437.335 355.522 437.815C355.817 438.287 356.222 438.662 356.736 438.94C357.25 439.21 357.831 439.345 358.48 439.345ZM382.164 428.501C383.58 428.501 384.932 428.733 386.221 429.196C387.51 429.651 388.66 430.38 389.671 431.382C390.683 432.377 391.479 433.687 392.06 435.313C392.642 436.939 392.932 438.923 392.932 441.266C392.941 443.423 392.688 445.356 392.174 447.067C391.66 448.769 390.923 450.218 389.962 451.414C389.01 452.611 387.864 453.525 386.525 454.157C385.185 454.78 383.689 455.092 382.038 455.092C380.218 455.092 378.613 454.742 377.223 454.043C375.841 453.335 374.733 452.383 373.899 451.187C373.073 449.99 372.58 448.651 372.42 447.168H378.575C378.769 448.027 379.177 448.676 379.801 449.114C380.424 449.544 381.17 449.759 382.038 449.759C383.622 449.759 384.806 449.072 385.589 447.699C386.373 446.325 386.765 444.459 386.765 442.1H386.613C386.251 442.875 385.737 443.541 385.071 444.097C384.414 444.653 383.651 445.078 382.784 445.373C381.916 445.668 381.001 445.816 380.041 445.816C378.491 445.816 377.121 445.462 375.933 444.754C374.754 444.046 373.827 443.073 373.153 441.834C372.487 440.596 372.15 439.18 372.142 437.588C372.134 435.802 372.551 434.226 373.393 432.861C374.236 431.488 375.411 430.418 376.919 429.651C378.427 428.876 380.176 428.492 382.164 428.501ZM382.202 433.303C381.427 433.303 380.736 433.485 380.129 433.847C379.531 434.209 379.059 434.698 378.714 435.313C378.368 435.928 378.2 436.619 378.208 437.386C378.217 438.152 378.39 438.843 378.727 439.458C379.072 440.073 379.54 440.562 380.129 440.924C380.728 441.287 381.41 441.468 382.177 441.468C382.75 441.468 383.281 441.363 383.769 441.152C384.258 440.941 384.684 440.651 385.046 440.28C385.408 439.901 385.69 439.463 385.893 438.965C386.103 438.468 386.204 437.938 386.196 437.373C386.187 436.623 386.011 435.941 385.665 435.326C385.32 434.711 384.844 434.222 384.237 433.86C383.639 433.489 382.96 433.303 382.202 433.303ZM406.212 455.092C404.24 455.092 402.492 454.755 400.967 454.081C399.451 453.399 398.254 452.459 397.378 451.263C396.502 450.066 396.055 448.689 396.038 447.13H402.332C402.357 447.694 402.539 448.196 402.876 448.634C403.213 449.064 403.672 449.401 404.253 449.645C404.834 449.889 405.496 450.011 406.237 450.011C406.979 450.011 407.632 449.881 408.196 449.62C408.769 449.35 409.216 448.984 409.536 448.52C409.856 448.048 410.012 447.509 410.004 446.902C410.012 446.296 409.839 445.757 409.485 445.285C409.132 444.813 408.63 444.446 407.981 444.185C407.341 443.924 406.583 443.793 405.707 443.793H403.191V439.345H405.707C406.473 439.345 407.147 439.218 407.729 438.965C408.319 438.713 408.778 438.359 409.106 437.904C409.435 437.44 409.595 436.91 409.587 436.311C409.595 435.73 409.456 435.22 409.169 434.782C408.891 434.336 408.5 433.99 407.994 433.746C407.497 433.501 406.92 433.379 406.263 433.379C405.572 433.379 404.944 433.501 404.38 433.746C403.823 433.99 403.381 434.336 403.052 434.782C402.724 435.229 402.551 435.747 402.534 436.337H396.556C396.573 434.795 397.003 433.438 397.845 432.267C398.688 431.087 399.834 430.165 401.283 429.499C402.741 428.834 404.401 428.501 406.263 428.501C408.116 428.501 409.747 428.825 411.154 429.474C412.561 430.123 413.656 431.007 414.44 432.128C415.223 433.24 415.615 434.5 415.615 435.907C415.624 437.365 415.147 438.565 414.187 439.509C413.235 440.453 412.009 441.034 410.509 441.253V441.455C412.514 441.691 414.027 442.34 415.046 443.402C416.074 444.463 416.584 445.79 416.576 447.383C416.576 448.882 416.133 450.214 415.249 451.376C414.372 452.531 413.151 453.441 411.583 454.106C410.025 454.764 408.234 455.092 406.212 455.092ZM429.95 455.092C427.979 455.092 426.23 454.755 424.705 454.081C423.189 453.399 421.992 452.459 421.116 451.263C420.24 450.066 419.793 448.689 419.776 447.13H426.07C426.096 447.694 426.277 448.196 426.614 448.634C426.951 449.064 427.41 449.401 427.991 449.645C428.573 449.889 429.234 450.011 429.976 450.011C430.717 450.011 431.37 449.881 431.935 449.62C432.507 449.35 432.954 448.984 433.274 448.52C433.594 448.048 433.75 447.509 433.742 446.902C433.75 446.296 433.578 445.757 433.224 445.285C432.87 444.813 432.368 444.446 431.72 444.185C431.079 443.924 430.321 443.793 429.445 443.793H426.93V439.345H429.445C430.211 439.345 430.886 439.218 431.467 438.965C432.057 438.713 432.516 438.359 432.845 437.904C433.173 437.44 433.333 436.91 433.325 436.311C433.333 435.73 433.194 435.22 432.908 434.782C432.63 434.336 432.238 433.99 431.732 433.746C431.235 433.501 430.658 433.379 430.001 433.379C429.31 433.379 428.682 433.501 428.118 433.746C427.562 433.99 427.119 434.336 426.791 434.782C426.462 435.229 426.289 435.747 426.273 436.337H420.295C420.311 434.795 420.741 433.438 421.584 432.267C422.426 431.087 423.572 430.165 425.021 429.499C426.479 428.834 428.139 428.501 430.001 428.501C431.854 428.501 433.485 428.825 434.892 429.474C436.299 430.123 437.394 431.007 438.178 432.128C438.962 433.24 439.353 434.5 439.353 435.907C439.362 437.365 438.886 438.565 437.925 439.509C436.973 440.453 435.747 441.034 434.247 441.253V441.455C436.253 441.691 437.765 442.34 438.785 443.402C439.813 444.463 440.322 445.79 440.314 447.383C440.314 448.882 439.871 450.214 438.987 451.376C438.111 452.531 436.889 453.441 435.322 454.106C433.763 454.764 431.972 455.092 429.95 455.092Z" fill="url(#paint1_linear_94_288)"/>
<defs>
<linearGradient id="paint0_linear_94_288" x1="464.223" y1="233.861" x2="397.942" y2="81.7877" gradientUnits="userSpaceOnUse">
<stop stop-color="#FFF21E"/>
<stop offset="1" stop-color="#FF9C00"/>
</linearGradient>
<linearGradient id="paint1_linear_94_288" x1="442.094" y1="460.158" x2="420.475" y2="378.447" gradientUnits="userSpaceOnUse">
<stop stop-color="#FFF21E"/>
<stop offset="1" stop-color="#FF9C00"/>
</linearGradient>
</defs>
</svg>
